<svg xmlns="http://www.w3.org/2000/svg" viewBox="0 0 24 24" id="search"><path d="M15.61 14.531l8.132 8.133-1.078 1.078-8.156-8.18-.188.188c-.844.672-1.773 1.164-2.789 1.476s-2.04.446-3.07.399a8.513 8.513 0 0 1-5.648-2.508c-.86-.859-1.5-1.824-1.922-2.894s-.633-2.16-.633-3.27.211-2.199.633-3.27 1.062-2.027 1.922-2.87c.843-.86 1.8-1.5 2.87-1.922s2.16-.633 3.27-.633 2.2.211 3.27.633 2.035 1.062 2.894 1.922a8.406 8.406 0 0 1 1.805 2.648 8.61 8.61 0 0 1 .293 6.094 8.626 8.626 0 0 1-1.512 2.812l-.14.141.046.023zm-6.704 1.594c.797 0 1.574-.13 2.332-.387a7.404 7.404 0 0 0 2.098-1.113l1.242-1.265a7.209 7.209 0 0 0 1.547-4.864 7.071 7.071 0 0 0-2.086-4.629c-.672-.687-1.445-1.21-2.32-1.57s-1.797-.539-2.766-.539-1.89.18-2.765.54-1.649.882-2.32 1.57c-.704.703-1.231 1.496-1.583 2.378s-.527 1.785-.527 2.707.176 1.825.527 2.707.88 1.676 1.582 2.38a7.049 7.049 0 0 0 2.309 1.546 7.06 7.06 0 0 0 2.73.539z"/></svg>
