<svg id="icons" xmlns="http://www.w3.org/2000/svg" viewBox="0 0 48 48"><title>global-nav_sustainable-development</title><path d="M36.1,18.55A13.49,13.49,0,0,0,17.85,26l.75.29A12.74,12.74,0,0,1,30.43,18.1a12.66,12.66,0,0,1,12.26,9.48q.12.46.2.93l.79-.14q-.09-.5-.22-1a13.5,13.5,0,0,0-6.59-8.44,13.64,13.64,0,0,0,.09-1.4,13.5,13.5,0,0,0-.54-3.78l-.77.22a12.7,12.7,0,0,1,.5,3.55C36.17,17.87,36.13,18.21,36.1,18.55Z"/><path d="M15,8.12l-.54-.59A13.57,13.57,0,0,0,13,9.06l.62.5A12.83,12.83,0,0,1,15,8.12Z"/><path d="M23.5,4.87A12.74,12.74,0,0,1,34.92,12l.72-.35A13.47,13.47,0,0,0,16.41,6.08l.42.68A12.64,12.64,0,0,1,23.5,4.87Z"/><path d="M43,32.2a12.64,12.64,0,0,1-18.83,9.58,13.6,13.6,0,0,0,2-1.65,13.38,13.38,0,0,0,.18-18.65l-.58.54a12.64,12.64,0,0,1-9.11,21.31h-.1a12.66,12.66,0,0,1-6.34-23.63l0,.09A13.47,13.47,0,0,0,26.72,30.62l-.19-.78A12.68,12.68,0,0,1,10.92,19l0-.28c0-.39-.06-.77-.06-1.17a12.65,12.65,0,0,1,1.73-6.4l-.69-.4A13.45,13.45,0,0,0,10,17.54c0,.45,0,.89.07,1.33a13.46,13.46,0,0,0,6.46,25.28h.1a13.37,13.37,0,0,0,6.75-1.88,13.45,13.45,0,0,0,20.4-10Z"/></svg>