<svg id="icons" xmlns="http://www.w3.org/2000/svg" viewBox="0 0 48 48"><title>global-nav_arcgis-desktop</title><path d="M39.9,23V7.1H3.1V29.9H15v-.8H13.45c0-.08,0-.16,0-.14a1.58,1.58,0,0,1,.46-.86,2.68,2.68,0,0,0,.49-.76,1.47,1.47,0,0,0-.06-.93,1.81,1.81,0,0,1-.1-.5c0-1.05-1.09-1.31-1.88-1.49-.36-.08-.89-.21-1-.36-.4-.8,0-1.21.63-1.88a2.65,2.65,0,0,0,1-1.83c0-.57-.31-1.51-1.14-1.6a2.25,2.25,0,0,0-1.16.19,1.82,1.82,0,0,1-.74.17c-.3,0-.62-.18-.62-.44a1.86,1.86,0,0,1,.31-.92,2.58,2.58,0,0,0,.41-1.3,3.17,3.17,0,0,0-.13-.85A2.41,2.41,0,0,1,9.84,15a1,1,0,0,1,1-1.1c.48,0,.71.37,1.09,1.05a1.88,1.88,0,0,0,1.79.92c1.38,0,2.26-1.58,2.26-2.67a.71.71,0,0,1,.62-.74,1.18,1.18,0,0,1,.72.34,1.92,1.92,0,0,0,1.2.5c1,0,1.39-.72,1.74-1.36a2.54,2.54,0,0,1,.9-1.09A2.64,2.64,0,0,0,22.31,7.9H39.1v8.81l-.65.08a3.82,3.82,0,0,0-1.69.67,1.91,1.91,0,0,1-1.08.41l-.51,0a4.65,4.65,0,0,0-1.42.07c-.32.09-.71.22-1.06.34a9.22,9.22,0,0,1-.88.27,2.08,2.08,0,0,0-.91.28,1.5,1.5,0,0,1-.56.2,2.91,2.91,0,0,1-1.84-.81,2.09,2.09,0,0,1-.43-.63c-.23-.45-.52-1-1.28-1a1.86,1.86,0,0,0-1.49,1c-.3.43-.5.69-.84.69a1.58,1.58,0,0,1-.55-.14,2.27,2.27,0,0,0-.84-.2c-.68,0-1.43.47-1.43,1.16v1.17c0,.31-.17.5-.47.8a1.88,1.88,0,0,0-.71,1.37,1.23,1.23,0,0,0,.34.78l.32-.24.27-.31c-.09-.12-.13-.17-.13-.23,0-.31.17-.5.47-.8a1.88,1.88,0,0,0,.71-1.37V19.12c0-.15.33-.36.63-.36a1.58,1.58,0,0,1,.55.14,2.28,2.28,0,0,0,.84.2,1.85,1.85,0,0,0,1.49-1c.3-.43.5-.69.84-.69s.33.11.57.57a2.77,2.77,0,0,0,.61.86,3.63,3.63,0,0,0,2.37,1,2.08,2.08,0,0,0,.91-.28,1.5,1.5,0,0,1,.55-.2A4.63,4.63,0,0,0,32.94,19c.34-.12.71-.24,1-.33a3.86,3.86,0,0,1,1.15,0l.56,0a2.64,2.64,0,0,0,1.5-.54,3,3,0,0,1,1.36-.55l.55-.07V23ZM20.73,10.12a3.23,3.23,0,0,0-1.22,1.4c-.35.62-.56.95-1,.95a1.18,1.18,0,0,1-.72-.34,1.92,1.92,0,0,0-1.2-.5,1.5,1.5,0,0,0-1.42,1.54c0,.64-.57,1.88-1.46,1.88a1.11,1.11,0,0,1-1.11-.55c-.37-.67-.8-1.43-1.77-1.43A1.84,1.84,0,0,0,9,15a3.16,3.16,0,0,0,.13.85,2.41,2.41,0,0,1,.11.65,1.86,1.86,0,0,1-.31.92,2.58,2.58,0,0,0-.41,1.3A1.33,1.33,0,0,0,10,19.91a2.57,2.57,0,0,0,1-.22,1.46,1.46,0,0,1,.78-.14c.28,0,.42.53.42.8,0,.47-.37.84-.8,1.27-.65.65-1.45,1.45-.78,2.8.24.49.86.63,1.5.78.88.2,1.27.36,1.27.72a2.48,2.48,0,0,0,.13.72.9.9,0,0,1,.07.44,2.16,2.16,0,0,1-.35.52A2.23,2.23,0,0,0,12.61,29a.59.59,0,0,0,0,.14H3.9V7.9H21.5C21.64,8.8,21.59,9.66,20.73,10.12ZM15,36.9H8v-.8h4.1V32.9H1.5A1.4,1.4,0,0,1,.1,31.5V5.5A1.4,1.4,0,0,1,1.5,4.1h40a1.4,1.4,0,0,1,1.4,1.4V23h-.8V5.5a.6.6,0,0,0-.6-.6H1.5a.6.6,0,0,0-.6.6v26a.6.6,0,0,0,.6.6H15v.8H12.9v3.2H15Zm29.5,4.2h-.6V26.5a1.4,1.4,0,0,0-1.4-1.4h-24a1.4,1.4,0,0,0-1.4,1.4V41.1h-3V43A1.9,1.9,0,0,0,16,44.9H45A1.9,1.9,0,0,0,46.9,43V41.1ZM17.9,26.5a.6.6,0,0,1,.6-.6h24a.6.6,0,0,1,.6.6V41.1H41.9v-14H19.1v14H17.9Zm23.2,1.4V41.1H19.9V27.9Zm5,15.1A1.1,1.1,0,0,1,45,44.1H16A1.1,1.1,0,0,1,14.9,43V41.9H28.09a1.5,1.5,0,0,0,1.41,1h3a1.5,1.5,0,0,0,1.41-1H46.1ZM23.3,38.46l-.61-.52,4.24-5,4.21,3,5.74-5.09H34v-.8h3.9V34h-.8V31.78L31.2,37l-4.13-3Z"/></svg>