<svg id="icons" xmlns="http://www.w3.org/2000/svg" viewBox="0 0 48 48"><title>global-nav_arcgis-online</title><path d="M47.9,25.92a10.94,10.94,0,0,1-6,9.76L41.58,35A10.18,10.18,0,0,0,38,15.81l-.33,0,0-.33a11,11,0,0,0-11.3-9.88A11,11,0,0,0,16.28,11.3l-.16.32-.33-.13a6.63,6.63,0,0,0-9,6.21c0,.22,0,.43,0,.64l0,.3-.28.11A9,9,0,0,0,9.9,36.1h2.3v.8H9.9A9.8,9.8,0,0,1,6,18.12c0-.14,0-.28,0-.42a7.46,7.46,0,0,1,7.45-7.45,7.37,7.37,0,0,1,2.31.37A11.83,11.83,0,0,1,26.35,4.77,11.77,11.77,0,0,1,38.41,15.05,10.94,10.94,0,0,1,47.9,25.92Zm-11,11.91,2.83,1.65-.68.39a23.94,23.94,0,0,0-4.79-1.1l-.1.79a23.42,23.42,0,0,1,4,.85l-3.17,1.85-3.22-1.88-.4.69,2.83,1.65L27.5,46.61l-7.67-4.47a18.68,18.68,0,0,1,3.08-1.43l-.27-.75A19.32,19.32,0,0,0,19,41.66l-3.74-2.18,2.83-1.65-.4-.69-4,2.34,13.79,8,13.79-8-4-2.34ZM27.5,17.45l13.79,8-13.79,8-13.79-8Zm0,15.17L28.63,32a2.53,2.53,0,0,1-.63-1.4,2.8,2.8,0,0,1,.56-1.62,1.49,1.49,0,0,0,.33-.79c0-.32-.28-.53-.73-.85s-1-.72-1-1.43a3.07,3.07,0,0,1,.26-.93,4.64,4.64,0,0,0,.35-1.23.57.57,0,0,0-.21-.48,34.3,34.3,0,0,0-3.75-2.68L15.29,25.5ZM39.71,25.5,27.5,18.38l-3,1.73A34.71,34.71,0,0,1,28,22.62a1.35,1.35,0,0,1,.5,1.09,4.91,4.91,0,0,1-.4,1.51,4.37,4.37,0,0,0-.21.65c0,.27.26.47.69.77a1.9,1.9,0,0,1,1.08,1.5,2.2,2.2,0,0,1-.46,1.22,2,2,0,0,0-.43,1.19s0,.3.53,1Zm-1.86,5,3.45,2-13.79,8-13.79-8,4-2.34.4.69-2.83,1.65,2.31,1.35-.06-.1,3.42-2,.4.69-3.09,1.8,6.56,3.83-.06-.1,12.15-7.09-.06,0,.4-.69.46.27.06,0Zm1.86,2-2-1.15L25.53,38.48l2,1.15Zm-8.11-7a.9.9,0,1,0,.9-.9A.9.9,0,0,0,31.6,25.5Zm-7.7-1a.6.6,0,1,0,.6-.6A.6.6,0,0,0,23.9,24.5Zm-1.3,3a.9.9,0,1,0,.9-.9A.9.9,0,0,0,22.6,27.5Z"/></svg>