<svg id="icons" xmlns="http://www.w3.org/2000/svg" viewBox="0 0 48 48"><title>global-nav_education</title><path d="M38.9,25.22v7.53c0,.83-.82,1.69-2.58,2.7l-.5.29-.4-.69.5-.29c2-1.13,2.17-1.78,2.17-2v-7.2L24.38,31.17,10.9,25.83v6.92c0,1.68,7.91,4.81,13.6,6.52a87.17,87.17,0,0,0,9.08-3.33l.33.73a88.9,88.9,0,0,1-9.3,3.41l-.11,0-.11,0C22,39.36,10.1,35.65,10.1,32.75V25.51L6.44,24.06l-.54.07V41H5.1V23.53l-5.16-2L24.38,11.22,33.18,15l-.32.73-8.49-3.68L2.06,21.46l4.49,1.78L24.65,21l.1.79-16.65,2,16.28,6.45L46,21.46l-5.09-2.21.32-.73,6.83,3Zm-.24-7.81-2.9-1.26-.32.73,2.9,1.26Z"/></svg>