<svg id="icons" xmlns="http://www.w3.org/2000/svg" viewBox="0 0 48 48"><title>global-nav_apps</title><path d="M27,43H20l1-2h5ZM5.32,39.9H41.68L35.53,24.1H33.48a2.48,2.48,0,0,1-.19.24l-.56.56H35l5.53,14.2h-34L12,24.9h2.27l-.56-.56a2.48,2.48,0,0,1-.19-.24H11.47ZM45.9,41.47v.13c0,.06,0,.12,0,.18V44.5a3.4,3.4,0,0,1-3.4,3.4H4.5a3.4,3.4,0,0,1-3.4-3.4v-3h0a3.37,3.37,0,0,1,.28-1.38l7.27-16a3.41,3.41,0,0,1,3.1-2H13v.48a2.47,2.47,0,0,0,0,.32H11.77a2.61,2.61,0,0,0-2.37,1.52l-7.27,16A2.6,2.6,0,0,0,4.5,44.1h38a2.59,2.59,0,0,0,2.59-2.37v-.21a2.58,2.58,0,0,0-.22-1.1l-7.27-16a2.61,2.61,0,0,0-2.37-1.52H34a2.47,2.47,0,0,0,0-.32V22.1h1.23a3.41,3.41,0,0,1,3.1,2l7.27,16a3.37,3.37,0,0,1,.28,1.38Zm-.8,2.19a3.37,3.37,0,0,1-2.59,1.23H4.5a3.37,3.37,0,0,1-2.6-1.25v.85a2.6,2.6,0,0,0,2.6,2.6h38a2.6,2.6,0,0,0,2.6-2.6ZM31.91,6.41V22.74l-8.4,8.46-8.4-8.46V6.41C15.11,2.28,18,.1,23.51.1S31.91,2.28,31.91,6.41Zm-.8,0c0-3.66-2.56-5.51-7.6-5.51s-7.6,1.85-7.6,5.51v16l7.6,7.65,7.6-7.65Zm-3.2,3.36a4.4,4.4,0,1,1-4.4-4.4A4.4,4.4,0,0,1,27.91,9.78Zm-.8,0a3.6,3.6,0,1,0-3.6,3.6A3.6,3.6,0,0,0,27.11,9.78Z"/></svg>