<svg id="icons" xmlns="http://www.w3.org/2000/svg" viewBox="0 0 48 48"><title>global-nav_operational-intelligence</title><rect x="9" y="17" width="2" height="2"/><path d="M18,9H14v4h4Zm-1,3H15V10h2Z"/><rect x="31" y="33" width="2" height="2"/><rect x="27" y="37" width="1" height="1"/><path d="M39,28H36v3h3Zm-1,2H37V29h1Z"/><polygon points="18 37.1 10.9 37.1 10.9 30 10.1 30 10.1 37.1 3 37.1 3 37.9 10.1 37.9 10.1 45 10.9 45 10.9 37.9 18 37.9 18 37.1"/><path d="M23.5,20.15a3.35,3.35,0,1,0,3.35,3.35A3.35,3.35,0,0,0,23.5,20.15Zm0,5.9A2.55,2.55,0,1,1,26,23.5,2.55,2.55,0,0,1,23.5,26.05Z"/><rect x="35" y="8.1" width="7" height="0.8"/><path d="M32.1,3.1V16.25l3.11-4.35H44.9V3.1Zm12,8H34.79L32.9,13.75V3.9H44.1Z"/><rect x="35" y="6.1" width="7" height="0.8"/><path d="M41.34,13.81l-.7.38A19.51,19.51,0,0,1,43,23.1H32.83a9.35,9.35,0,0,0-8.93-8.93V4A19.44,19.44,0,0,1,30,5.11l.27-.75a20.3,20.3,0,0,0-27,18.75H3.17v.8h0A20.15,20.15,0,0,0,6.93,35.23l.65-.46A19.35,19.35,0,0,1,4,23.9H14.17a9.35,9.35,0,0,0,8.93,8.93V43a19.44,19.44,0,0,1-9.89-2.92l-.42.68a20.29,20.29,0,0,0,31-16.85h.05v-.8h0A20.32,20.32,0,0,0,41.34,13.81ZM4,23.1A19.5,19.5,0,0,1,23.1,4V14.17a9.35,9.35,0,0,0-8.93,8.93ZM15,23.5a8.55,8.55,0,1,1,8.55,8.55A8.56,8.56,0,0,1,15,23.5ZM23.9,43V32.83a9.35,9.35,0,0,0,8.93-8.93H43A19.5,19.5,0,0,1,23.9,43Z"/></svg>