<svg id="icons" xmlns="http://www.w3.org/2000/svg" viewBox="0 0 48 48"><title>global-nav_location-strategy</title><path d="M11.5,31.3a1.8,1.8,0,1,0-1.8-1.8A1.8,1.8,0,0,0,11.5,31.3Zm0-2.55a.75.75,0,1,1-.75.75A.75.75,0,0,1,11.5,28.75Z"/><path d="M28.5,14.7a1.8,1.8,0,1,0,1.8,1.8A1.8,1.8,0,0,0,28.5,14.7Zm0,2.55a.75.75,0,1,1,.75-.75A.75.75,0,0,1,28.5,17.25Z"/><path d="M34.3,31.5a1.8,1.8,0,1,0-1.8,1.8A1.8,1.8,0,0,0,34.3,31.5Zm-2.55,0a.75.75,0,1,1,.75.75A.75.75,0,0,1,31.75,31.5Z"/><path d="M37.3,20.5a1.8,1.8,0,1,0-1.8,1.8A1.8,1.8,0,0,0,37.3,20.5Zm-2.55,0a.75.75,0,1,1,.75.75A.75.75,0,0,1,34.75,20.5Z"/><path d="M4.7,24.5a1.8,1.8,0,1,0,1.8-1.8A1.8,1.8,0,0,0,4.7,24.5Zm1.8-.75a.75.75,0,1,1-.75.75A.75.75,0,0,1,6.5,23.75Z"/><circle cx="25.5" cy="9.5" r="0.9"/><circle cx="32.5" cy="13.5" r="0.9"/><circle cx="30.5" cy="36.5" r="0.9"/><circle cx="17.6" cy="39.5" r="0.9"/><circle cx="14.5" cy="24.5" r="0.9"/><rect x="23.1" y="44" width="0.8" height="3"/><path d="M25.46,44l.08.8A21.39,21.39,0,0,0,44.81,25.5l-.8-.07A20.59,20.59,0,0,1,25.46,44Z"/><path d="M15.53,20.26l-.74-.3A9.34,9.34,0,0,0,14.21,22l.79.12A8.54,8.54,0,0,1,15.53,20.26Z"/><path d="M26.3,23.5a2.8,2.8,0,0,0-2.8-2.8,2.77,2.77,0,0,0-1.18.27l-9.86-9.86c-1.22-1.48-2.88.18-1.4,1.4l9.88,9.88A2.8,2.8,0,1,0,26.3,23.5Zm-15-11.24c-.51-.42-.53-.78-.45-1a.57.57,0,0,1,.55-.38,1.07,1.07,0,0,1,.78.46L22,21.15a2.81,2.81,0,0,0-.89.92ZM21.5,23.5a2,2,0,1,1,2,2A2,2,0,0,1,21.5,23.5Z"/><path d="M23.5,32.1a8.56,8.56,0,0,1-8-5.43l-.74.3A9.36,9.36,0,0,0,23.5,32.9Z"/><path d="M44,21.51l.8-.08A21.4,21.4,0,0,0,25.54,2.2l-.08.8A20.6,20.6,0,0,1,44,21.51Z"/><path d="M21.54,3l-.08-.8A21.39,21.39,0,0,0,2.19,21.5l.8.07A20.59,20.59,0,0,1,21.54,3Z"/><path d="M3,25.49l-.8.08A21.4,21.4,0,0,0,21.46,44.8l.08-.8A20.6,20.6,0,0,1,3,25.49Z"/><rect x="44.03" y="23.07" width="3" height="0.8"/><path d="M6.2,21.66l.8.08a16.58,16.58,0,0,1,2.77-7.56l-.66-.45A17.39,17.39,0,0,0,6.2,21.66Z"/><path d="M11.83,16.93a13.4,13.4,0,0,0-1.3,9.94l.77-.2a12.6,12.6,0,0,1,1.22-9.34Z"/><path d="M15.25,38.81l.38-.7A16.63,16.63,0,0,1,7.31,27.18l-.78.18A17.43,17.43,0,0,0,15.25,38.81Z"/><rect x="0.03" y="23.13" width="3" height="0.8"/><rect x="23.1" width="0.8" height="3"/><path d="M23.5,40.9v-.8a16.64,16.64,0,0,1-3.5-.37l-.17.78A17.45,17.45,0,0,0,23.5,40.9Z"/><path d="M23.5,36.1a12.55,12.55,0,0,1-9.84-4.74l-.62.5a13.35,13.35,0,0,0,10.47,5Z"/></svg>