<svg id="icons" xmlns="http://www.w3.org/2000/svg" viewBox="0 0 48 48"><title>global-nav_smart-communities</title><path d="M4.92,23.95q0-.47,0-.95a18.28,18.28,0,0,1,.32-3.41A18,18,0,0,1,6,16.65q.26-.69.57-1.36l-.72-.34q-.33.69-.6,1.42a18.81,18.81,0,0,0-.86,3.08A19,19,0,0,0,4.1,23c0,.33,0,.66,0,1Z"/><rect x="25" y="10.1" width="2" height="0.8"/><rect x="25" y="13.1" width="2" height="0.8"/><path d="M42.9,41.6V18.1H37.43L34.1,22.36V27.1H29.9V6.1h-2V.1H21.58L18.1,3.84V13.91l1,1.09h0V25.5h0l-1,1.37V33.1H14.9V29.37L11.7,25.1H6.1v4h-3v13C1.4,42.66.6,43.26.6,44c0,2.86,14,3.9,23.4,3.9s23.4-1,23.4-3.9C47.4,43.38,46.92,42.47,42.9,41.6ZM24,47.1C10,47.1,1.4,45.29,1.4,44c0-.18.38-.58,1.7-1v0h.8V29.9h3v-4h4.4l2.8,3.73V33.9h4V44h.8V27.13l3-4V16.84l-3-3.25V4.16l3-3.26H27.1v6h2V33.1H27.9v-2H22.1V44h.8V31.9h4.2v2h7v2h3V44h.8V31.1H32.1v2H29.9V27.9h5V22.64l2.92-3.74H42.1V43h.8v-.58c3.65.81,3.7,1.55,3.7,1.58C46.6,45.29,38,47.1,24,47.1ZM19.9,24.47V15.86l1.2,1.3v5.71Zm13,8.63V31.9h4.2v3.2H34.9v-2Z"/><rect x="25" y="16.1" width="2" height="0.8"/><path d="M35.25,9.68l.54-.59a18.88,18.88,0,0,0-3.6-2.6l-.39.7a18,18,0,0,1,1.82,1.17A18.32,18.32,0,0,1,35.25,9.68Z"/><circle cx="37.5" cy="11.5" r="0.9"/><path d="M39.76,16.15l.74-.3q-.21-.51-.45-1t-.59-1.12l-.7.39c.2.35.39.71.56,1.08S39.63,15.82,39.76,16.15Z"/><rect x="25" y="19.1" width="2" height="0.8"/><path d="M12.79,8.05a18.14,18.14,0,0,1,3.36-1.81l-.3-.74a18.94,18.94,0,0,0-6.67,4.6l.58.55A18.26,18.26,0,0,1,12.79,8.05Z"/><circle cx="7.5" cy="12.5" r="0.9"/><rect x="31" y="38.1" width="3.76" height="0.8"/><rect x="25" y="22.1" width="2" height="0.8"/><rect x="37.1" y="25.21" width="0.8" height="2.79"/><rect x="39.1" y="23" width="0.8" height="5"/><rect x="7" y="32.1" width="4" height="0.8"/><rect x="31" y="40.1" width="3.76" height="0.8"/><rect x="7" y="35.1" width="4" height="0.8"/><rect x="25" y="25.1" width="2" height="0.8"/><rect x="25" y="28.1" width="2" height="0.8"/><rect x="7" y="38.1" width="4" height="0.8"/></svg>