<svg id="icons" xmlns="http://www.w3.org/2000/svg" viewBox="0 0 48 48"><defs><style>.cls-1{fill:none;}.cls-2{fill:#231f20;}</style></defs><title>apps-48</title><rect class="cls-1" width="48" height="48"/><polygon class="cls-2" points="34.489 3.155 25.119 7.563 25.119 11.691 25.92 11.939 25.92 8.07 34.55 4.011 43.119 6.66 43.119 20.07 34.489 24.154 30 22.754 30 23.592 34.55 25.012 43.92 20.576 43.92 6.07 34.489 3.155"/><polygon class="cls-2" points="22 35.04 15.97 37.894 4.9 34.439 4.9 17.152 16.03 11.917 27.1 15.339 27.1 27.747 27.9 27.37 27.9 14.749 15.97 11.062 4.1 16.645 4.1 35.027 16.03 38.751 22 35.925 22 35.04"/><path class="cls-2" d="M30.97,28.2471,24.1,31.4785V42.1064L31.03,44.2705l6.87-3.2529V30.3887ZM37.1,40.5117l-6.13,2.9014L24.9,41.5186V31.9863l6.13-2.8838L37.1,30.9785Z"/></svg>