<svg id="icons" xmlns="http://www.w3.org/2000/svg" viewBox="0 0 48 48"><defs><style>.cls-1{fill:#231f20;}.cls-2{fill:none;}</style></defs><title>arcgis-desktop-48</title><path class="cls-1" d="M15,36.1H12.9V32.9H15v-.8H1.5a.6006.6006,0,0,1-.6-.6V5.5a.6006.6006,0,0,1,.6-.6h38a.6006.6006,0,0,1,.6.6V23h.8V5.5a1.4014,1.4014,0,0,0-1.4-1.4H1.5A1.4014,1.4014,0,0,0,.1,5.5v26a1.4014,1.4014,0,0,0,1.4,1.4H12.1v3.2H8v.8h7Z"/><path class="cls-1" d="M43.9,41.1V26.5a1.4014,1.4014,0,0,0-1.4-1.4h-24a1.4014,1.4014,0,0,0-1.4,1.4V41.1h-3V43A1.9017,1.9017,0,0,0,16,44.9H45A1.9017,1.9017,0,0,0,46.9,43V41.1Zm-26-14.6a.6006.6006,0,0,1,.6-.6h24a.6006.6006,0,0,1,.6.6V41.1H41.9v-14H19.1v14H17.9Zm2,14.6V27.9H41.1V41.1ZM46.1,43A1.1015,1.1015,0,0,1,45,44.1H16A1.1015,1.1015,0,0,1,14.9,43V41.9H28.064A1.4947,1.4947,0,0,0,29.5,43h3a1.4925,1.4925,0,0,0,1.4331-1.1H46.1Z"/><polygon class="cls-1" points="34 30.9 36.884 30.9 31.148 35.989 26.934 32.96 22.695 37.941 23.305 38.459 27.066 34.04 31.201 37.011 37.1 31.778 37.1 34 37.9 34 37.9 30.1 34 30.1 34 30.9"/><path class="cls-1" d="M37.9,23V7.1H3.1V29.9H15v-.8H13.4539c-.0212-.08-.04-.1523-.0442-.1362a1.5806,1.5806,0,0,1,.4624-.8594,2.677,2.677,0,0,0,.4854-.7632,1.4665,1.4665,0,0,0-.0557-.93,1.8071,1.8071,0,0,1-.0986-.5c0-1.0542-1.0889-1.3086-1.8843-1.4946-.356-.083-.894-.209-.97-.3618-.3984-.7954-.04-1.2114.6279-1.8774a2.653,2.653,0,0,0,1.03-1.8315c0-.5723-.3091-1.5117-1.1372-1.5952a2.2613,2.2613,0,0,0-1.1562.19,1.8247,1.8247,0,0,1-.7388.1665c-.2979,0-.6172-.1753-.6172-.4365a1.8567,1.8567,0,0,1,.31-.918,2.5776,2.5776,0,0,0,.4067-1.2974,3.17,3.17,0,0,0-.1323-.85,2.4131,2.4131,0,0,1-.106-.6455,1.0437,1.0437,0,0,1,.9761-1.0977c.4771,0,.7051.3677,1.0859,1.0508a1.8758,1.8758,0,0,0,1.7861.9243c1.377,0,2.2554-1.584,2.2554-2.6748a.7067.7067,0,0,1,.6182-.7363,1.1761,1.1761,0,0,1,.7153.3379,1.9225,1.9225,0,0,0,1.1992.5c.98,0,1.3862-.7207,1.7446-1.3564a2.536,2.536,0,0,1,.8989-1.0864A2.6441,2.6441,0,0,0,22.31,7.9H37.1v9.3622c-.1157.067-.2362.133-.3433.2008a1.9162,1.9162,0,0,1-1.0757.4136c-.1641,0-.3354-.0117-.5112-.0234a4.6235,4.6235,0,0,0-1.4194.07c-.3218.0884-.708.2188-1.0635.3384a9.2234,9.2234,0,0,1-.8848.2744,2.0817,2.0817,0,0,0-.91.2837,1.4954,1.4954,0,0,1-.5562.2012,2.9122,2.9122,0,0,1-1.8447-.8105,2.09,2.09,0,0,1-.4253-.6279c-.2314-.4453-.52-1-1.2759-1a1.8559,1.8559,0,0,0-1.4946,1.0308c-.3013.4282-.5029.6909-.8394.6909a1.58,1.58,0,0,1-.5547-.1436,2.2681,2.2681,0,0,0-.84-.1963c-.6787,0-1.4346.4746-1.4346,1.1553v1.168c0,.3125-.17.499-.4722.8013a1.8808,1.8808,0,0,0-.7061,1.3691,1.2316,1.2316,0,0,0,.3423.7813L21.1123,23l.2666-.31c-.0923-.1191-.13-.1733-.13-.2319,0-.314.1709-.501.4731-.8042a1.8779,1.8779,0,0,0,.7051-1.3662V19.12c0-.147.3281-.3555.6348-.3555a1.5751,1.5751,0,0,1,.5532.1436,2.2834,2.2834,0,0,0,.8413.1963,1.8541,1.8541,0,0,0,1.4937-1.03c.3018-.4287.5034-.6914.84-.6914.2388,0,.33.1143.5664.5688a2.77,2.77,0,0,0,.606.86A3.6346,3.6346,0,0,0,30.3364,19.82a2.08,2.08,0,0,0,.9116-.2842,1.4975,1.4975,0,0,1,.5542-.2007,4.6338,4.6338,0,0,0,1.1406-.3159c.3408-.1152.7109-.24,1.02-.3252a3.8427,3.8427,0,0,1,1.1543-.043c.1938.0127.3833.0249.564.0249A2.5115,2.5115,0,0,0,37.1,18.1907V23ZM20.7344,10.1191a3.2291,3.2291,0,0,0-1.2153,1.397c-.3511.624-.5576.95-1.0474.95a1.1778,1.1778,0,0,1-.7163-.3384,1.9209,1.9209,0,0,0-1.1982-.5,1.5006,1.5006,0,0,0-1.418,1.5361c0,.6436-.5669,1.875-1.4556,1.875a1.1052,1.1052,0,0,1-1.106-.5479c-.373-.6689-.7959-1.4272-1.7661-1.4272a1.8415,1.8415,0,0,0-1.7759,1.8975,3.1589,3.1589,0,0,0,.1318.8477,2.4055,2.4055,0,0,1,.1064.6479,1.8554,1.8554,0,0,1-.31.915,2.5842,2.5842,0,0,0-.4072,1.3,1.3273,1.3273,0,0,0,1.417,1.2363,2.5733,2.5733,0,0,0,1.03-.2212,1.45,1.45,0,0,1,.7842-.14c.2783.0283.4185.5278.4185.7993,0,.4717-.3687.8394-.7954,1.2651-.6479.6465-1.4541,1.4512-.7778,2.8022.2446.4883.856.6313,1.5034.7827.876.2046,1.2666.3564,1.2666.7153a2.4825,2.4825,0,0,0,.1309.7246.8965.8965,0,0,1,.0674.4429,2.1589,2.1589,0,0,1-.353.5234,2.2276,2.2276,0,0,0-.6387,1.3608.5909.5909,0,0,0,.0185.1362H3.9V7.9H21.5018C21.6406,8.8,21.5906,9.6559,20.7344,10.1191Z"/><rect class="cls-2" width="48" height="48"/></svg>