<svg id="icons" xmlns="http://www.w3.org/2000/svg" viewBox="0 0 48 48"><defs><style>.cls-1{fill:#231f20;}.cls-2{fill:none;}</style></defs><title>arcgis-enterprise-48</title><path class="cls-1" d="M13,15H11V13h2Zm4-2H15v2h2Zm4,0H19v2h2Zm4,0H23v2h2Zm4,0H27v2h2ZM13,24H11v2h2Zm4,0H15v2h2Zm4,0H19v2h2Zm4,0H23v2h2Zm4,0H27v2h2ZM13,35H11v2h2Zm4,0H15v2h2Zm4,0H19v2h2Zm4,0H23v2h2Zm4,0H27v2h2Zm17.4-1.5a.9.9,0,1,0-.9.9A.9011.9011,0,0,0,46.4,33.5Zm-25,12a.9.9,0,1,0-.9.9A.9011.9011,0,0,0,21.4,45.5Zm-18-38a.9.9,0,1,0-.9.9A.9011.9011,0,0,0,3.4,7.5Zm20-5a.9.9,0,1,0-.9.9A.9011.9011,0,0,0,23.4,2.5ZM7.1,29.9H40.9V20.1H7.1Zm.8-9H40.1v8.2H7.9Zm-.8,20H40.9V31.1H7.1Zm.8-9H40.1v8.2H7.9ZM7.1,9.1v9.8H40.9V9.1Zm33,9H7.9V9.9H40.1ZM4.9229,5.1377l-.5713-.56A14.9228,14.9228,0,0,1,19.4917.7891l-.2412.7627A14.08,14.08,0,0,0,4.9229,5.1377ZM13.8563,42.5a20.4677,20.4677,0,0,0,3.2878,2.1328l.3672-.7109A19.5879,19.5879,0,0,1,15.2141,42.5Zm14.01-35a14.8993,14.8993,0,0,0-2.4442-3.1484l-.56.5713A14.1316,14.1316,0,0,1,26.9368,7.5ZM5.5,25.3973A14.0466,14.0466,0,0,1,1.5518,10.75l-.7627-.2412A14.8363,14.8363,0,0,0,5.5,26.4507ZM42.5,13.87v1.3185a19.62,19.62,0,0,1,3.2715,14.9042l.7871.1455A20.3951,20.3951,0,0,0,42.5,13.87ZM37.8167,42.5A19.6132,19.6132,0,0,1,23.854,45.9229l-.1074.793A20.3727,20.3727,0,0,0,39.124,42.5ZM42.5,37.8134v1.3174a20.4624,20.4624,0,0,0,1.6895-2.4633l-.6934-.3994C43.1909,36.7983,42.8548,37.3124,42.5,37.8134Z"/><rect class="cls-2" width="48" height="48"/></svg>