<svg id="icons" xmlns="http://www.w3.org/2000/svg" viewBox="0 0 48 48"><defs><style>.cls-1{fill:#231f20;}.cls-2{fill:none;}</style></defs><title>arcgis-online-48</title><path class="cls-1" d="M37.396,37.211l3.8979,2.2739L27.5,47.5313,13.7061,39.4849l3.898-2.2739.7943.4633-3.1044,1.8105,3.7365,2.18a19.3506,19.3506,0,0,1,3.4078-1.6337l.8915.52-.4177.1483a18.6785,18.6785,0,0,0-3.0779,1.4343L27.5,46.6055l6.6346-3.87L31.03,40.9243l.7943-.4634,3.1046,1.8107L38.103,40.42a24.69,24.69,0,0,0-4.61-.9324l1.1235-.6554A23.8672,23.8672,0,0,1,39.03,39.879l.6756-.3941-3.1044-1.8105Zm1.0117-22.16A11.768,11.768,0,0,0,26.35,4.7666,11.8286,11.8286,0,0,0,15.7368,10.624a7.3689,7.3689,0,0,0-2.312-.374,7.4574,7.4574,0,0,0-7.437,7.87A9.7973,9.7973,0,0,0,9.9,36.9H12v-.8H9.9A8.9973,8.9973,0,0,1,6.5581,18.748l.2778-.1113a8.8111,8.8111,0,0,1-.061-.9365,6.6348,6.6348,0,0,1,9.0093-6.2109l.3325.1265.1646-.3159A11.0064,11.0064,0,0,1,26.35,5.5664a10.9735,10.9735,0,0,1,11.2954,9.8813l.0308.3262.3257.0342A10.1761,10.1761,0,0,1,41.58,34.9756l.3662.7109a10.9765,10.9765,0,0,0-3.5381-20.6357ZM37.3723,30.2187l3.9217,2.2877L27.5,40.5522,13.7061,32.5063l3.9217-2.2877.7938.4631-3.1276,1.8246,2.1967,1.2814,3.1276-1.8246.7943.4633L18.2849,34.251l6.674,3.8931,12.2059-7.12-.5864-.3421Zm2.3338,2.2877-1.747-1.0191-12.2059,7.12L27.5,39.6265ZM23.9,24.5a.6.6,0,1,0,.6-.6A.6008.6008,0,0,0,23.9,24.5Zm-.4,2.1a.9.9,0,1,1-.9.9A.9011.9011,0,0,1,23.5,26.6Zm4-9.1465L13.7061,25.5,27.5,33.5464,41.2939,25.5ZM39.7061,25.5,29.3245,31.5562c-.495-.69-.5257-.9435-.5257-.9908a2.049,2.049,0,0,1,.4316-1.1919,2.2,2.2,0,0,0,.4551-1.2246,1.9045,1.9045,0,0,0-1.0771-1.5044c-.4312-.2983-.6934-.499-.6934-.77a4.3694,4.3694,0,0,1,.2124-.6479,4.9125,4.9125,0,0,0,.4-1.5137,1.3536,1.3536,0,0,0-.5024-1.0942,34.7108,34.7108,0,0,0-3.484-2.5133L27.5,18.3794Zm-24.4121,0,8.47-4.9412a34.3047,34.3047,0,0,1,3.7525,2.6771.5668.5668,0,0,1,.2114.4771,4.6357,4.6357,0,0,1-.35,1.2334,3.07,3.07,0,0,0-.2632.9253c0,.7129.5757,1.1108,1.0381,1.4307.4556.3154.7324.53.7324.8467a1.4911,1.4911,0,0,1-.3281.7925,2.805,2.805,0,0,0-.5586,1.624,2.53,2.53,0,0,0,.6311,1.3959l-1.13.6593ZM32.5,24.6a.9.9,0,1,1-.9.9A.9011.9011,0,0,1,32.5,24.6Z"/><rect class="cls-2" width="48" height="48"/></svg>