<svg xmlns="http://www.w3.org/2000/svg" width="24" height="24" viewBox="0 0 24 24"><g fill="none" stroke="#4D4D4D" stroke-width="2" stroke-miterlimit="10"><path d="M4.25 4L23 5v7.321L5.75 14z"/><path d="M4.35 4.24l-.38-1.892a1 1 0 0 0-.759-.795L.198 1M10 20.94C10 22.045 9.105 23 8 23a2 2 0 1 1 0-4c1.105 0 2 .835 2 1.94zm12 0c0 1.105-.895 2.06-2 2.06a2 2 0 1 1 0-4c1.105 0 2 .835 2 1.94zM8 17v2m12.504-.349c0-1.434-.99-1.651-1.698-1.651H6.28c-.308 0-1.002-.017-1.191-.26-.19-.242-.257-.496-.182-.795L5.75 14"/></g></svg>