<svg id="icons" xmlns="http://www.w3.org/2000/svg" viewBox="0 0 48 48"><defs><style>.cls-1{fill:#231f20;}.cls-2{fill:none;}</style></defs><title>smart-communities-48</title><path class="cls-1" d="M7,32.1h4v.8H7Zm24,6.8h3.7568v-.8H31Zm0,2h3.7568v-.8H31Zm-24-2h4v-.8H7ZM27,28.1H25v.8h2ZM7,35.9h4v-.8H7ZM27,25.1H25v.8h2ZM47.4,44c0,2.8613-13.9941,3.9-23.4,3.9S.6,46.8613.6,44c0-.7369.8047-1.3367,2.5-1.879V29.1h3v-4H11.7l3.2,4.2666V33.1H18.1V26.8667l1-1.3333V15h.01L18.1,13.9063V3.8428L21.5752.1H27.9v6h2v21H34.1V22.3623L37.43,18.1H42.9V41.598C46.9155,42.4659,47.4,43.3808,47.4,44ZM46.6,44c0-.0323-.0535-.7734-3.6992-1.5836V43H42.1V18.9H37.82L34.9,22.6377V27.9h-5v5.2H32.1v-2H37.9V44H37.1V35.9h-3v-2h-7v-2H22.9V44H22.1V31.1H27.9v2H29.1V6.9h-2V.9H21.9248L18.9,4.1572v9.4365l3,3.25v6.29l-3,4V44H18.1V33.9h-4V29.6333L11.3,25.9H6.9v4h-3V43H3.1v-.0386C1.778,43.4161,1.4,43.8192,1.4,44c0,1.2944,8.5977,3.1,22.6,3.1S46.6,45.2944,46.6,44ZM21.1,22.8667v-5.71L19.9,15.8571v8.6085ZM34.9,33.1v2H37.1V31.9H32.9v1.2ZM37.1,28H37.9V25.2085H37.1ZM27,19.1H25v.8h2Zm0,3H25v.8h2Zm0-6H25v.8h2Zm0-6H25v.8h2ZM39.1,28H39.9V23H39.1ZM27,13.1H25v.8h2ZM8.4,12.5a.9.9,0,1,0-.9.9A.9011.9011,0,0,0,8.4,12.5Zm29.1-.1a.9.9,0,1,1,.9-.9A.9011.9011,0,0,1,37.5,12.4Zm1.2666,1.7046.6973-.3936A17.8343,17.8343,0,0,1,40.7433,16.5H39.89A16.5735,16.5735,0,0,0,38.7666,14.1045ZM31.5,6.1245a18.5428,18.5428,0,0,1,4.292,2.9625l-.541.5889A18.3165,18.3165,0,0,0,33.63,8.3486,18.0974,18.0974,0,0,0,31.5,7.0345ZM4.1074,23.5117C4.1016,23.3418,4.1,23.1709,4.1,23a18.8636,18.8636,0,0,1,1.7949-8.05l.7246.3408a18.0507,18.0507,0,0,0-1.7129,8.1978c-.0106,0-.3956.0117-.4062.0117v0ZM9.7666,10.6509l-.584-.5459A18.7751,18.7751,0,0,1,16.5,5.2569V6.113A17.9426,17.9426,0,0,0,9.7666,10.6509Z"/><rect class="cls-2" width="48" height="48"/></svg>