<svg xmlns="https://www.w3.org/2000/svg" viewBox="0 0 32 32"><path d="M25.819 28H23.18a.181.181 0 01-.181-.181V13.18a.181.181 0 01.181-.181h2.638a.181.181 0 01.181.181v14.64a.181.181 0 01-.181.181zM21 27.816v-9.631a.184.184 0 00-.184-.185h-2.631a.184.184 0 00-.185.184v9.631a.184.184 0 00.184.185h2.631a.184.184 0 00.185-.184zm9.82.184a.18.18 0 00.18-.18v-7.64a.18.18 0 00-.18-.18h-2.64a.18.18 0 00-.18.18v7.64a.18.18 0 00.18.18zM7 9.267v10.475c.706.033 3.538-1.718 4.274-4.7.679-2.751 3.485-2.864 4.443-2.94 1.766-.14 3.588-.607 4.566-2.798A.216.216 0 0020.085 9H7.267A.267.267 0 007 9.267zm18.997-1.053A4.411 4.411 0 0021.63 4H2.684A.684.684 0 002 4.684V21.81A3.19 3.19 0 005.19 25h9.565a.245.245 0 00.245-.245v-2.362a.393.393 0 00-.393-.393H6.38A1.385 1.385 0 015 20.619V7.349A.348.348 0 015.348 7h16.324A1.346 1.346 0 0123 8.363v1.28a.357.357 0 00.357.357h2.599a.046.046 0 00.046-.046z" fill="#ee9e01"/></svg>