<svg data-name="Layer 1" xmlns="https://www.w3.org/2000/svg" viewBox="0 0 14.4 14.4"><path d="M5.15 0A5.28 5.28 0 000 5.4c0 3 5.15 9 5.15 9s5.15-6 5.15-9A5.28 5.28 0 005.15 0zm0 7.65a2.64 2.64 0 01-2.57-2.7A2.64 2.64 0 015.15 2.2a2.64 2.64 0 012.57 2.7 2.64 2.64 0 01-2.57 2.75z"/><path d="M10.89 9.57a.84.84 0 01.8-.8.82.82 0 01.79.52 1.48 1.48 0 01.07.59v.84h1.05a.81.81 0 01.63.33.92.92 0 01.09.93.82.82 0 01-.68.47h-1.09v.88a1.85 1.85 0 010 .43.84.84 0 01-.55.6.8.8 0 01-.8-.16.87.87 0 01-.33-.7v-1.09h-.84a1.63 1.63 0 01-.4 0 .84.84 0 01-.58-.6.92.92 0 010-.6.82.82 0 01.72-.51h1.07c.06-.37.05-.75.05-1.13z" fill="#010101"/></svg>