<svg xmlns="http://www.w3.org/2000/svg" viewBox="0 0 48 48" id="icon"><path d="M34.489 3.155l-9.37 4.408v4.128l.801.248V8.07l8.63-4.059 8.569 2.649v13.41l-8.63 4.084-4.489-1.4v.838l4.55 1.42 9.37-4.436V6.07l-9.431-2.915z"/><path d="M22 35.04l-6.03 2.854L4.9 34.439V17.152l11.13-5.235 11.07 3.422v12.408l.8-.377V14.749l-11.93-3.687L4.1 16.645v18.382l11.93 3.724L22 35.925v-.885z"/><path d="M30.97 28.247L24.1 31.48v10.627l6.93 2.164 6.87-3.252v-10.63zm6.13 12.265l-6.13 2.901-6.07-1.894v-9.533l6.13-2.884 6.07 1.877z"/></svg>
