<svg xmlns="http://www.w3.org/2000/svg" viewBox="0 0 48 48" id="icon"><path d="M13 15h-2v-2h2zm4-2h-2v2h2zm4 0h-2v2h2zm4 0h-2v2h2zm4 0h-2v2h2zM13 24h-2v2h2zm4 0h-2v2h2zm4 0h-2v2h2zm4 0h-2v2h2zm4 0h-2v2h2zM13 35h-2v2h2zm4 0h-2v2h2zm4 0h-2v2h2zm4 0h-2v2h2zm4 0h-2v2h2zm17.4-1.5a.9.9 0 1 0-.9.9.901.901 0 0 0 .9-.9zm-25 12a.9.9 0 1 0-.9.9.901.901 0 0 0 .9-.9zm-18-38a.9.9 0 1 0-.9.9.901.901 0 0 0 .9-.9zm20-5a.9.9 0 1 0-.9.9.901.901 0 0 0 .9-.9zM7.1 29.9h33.8v-9.8H7.1zm.8-9h32.2v8.2H7.9zm-.8 20h33.8v-9.8H7.1zm.8-9h32.2v8.2H7.9zM7.1 9.1v9.8h33.8V9.1zm33 9H7.9V9.9h32.2zM4.923 5.138l-.571-.56A14.923 14.923 0 0 1 19.492.789l-.241.763A14.08 14.08 0 0 0 4.923 5.138zM13.856 42.5a20.468 20.468 0 0 0 3.288 2.133l.367-.711a19.588 19.588 0 0 1-2.297-1.422zm14.01-35a14.9 14.9 0 0 0-2.444-3.148l-.56.57A14.132 14.132 0 0 1 26.937 7.5zM5.5 25.397A14.047 14.047 0 0 1 1.552 10.75l-.763-.241A14.836 14.836 0 0 0 5.5 26.45zm37-11.527v1.319a19.62 19.62 0 0 1 3.272 14.904l.787.145A20.395 20.395 0 0 0 42.5 13.87zM37.817 42.5a19.613 19.613 0 0 1-13.963 3.423l-.107.793A20.373 20.373 0 0 0 39.124 42.5zm4.683-4.687v1.318a20.462 20.462 0 0 0 1.69-2.463l-.694-.4c-.305.53-.641 1.044-.996 1.545z"/></svg>
