<svg xmlns="http://www.w3.org/2000/svg" viewBox="0 0 48 48" id="icon"><path d="M15 36.1h-2.1v-3.2H15v-.8H1.5a.6.6 0 0 1-.6-.6v-26a.6.6 0 0 1 .6-.6h38a.6.6 0 0 1 .6.6V23h.8V5.5a1.401 1.401 0 0 0-1.4-1.4h-38A1.401 1.401 0 0 0 .1 5.5v26a1.401 1.401 0 0 0 1.4 1.4h10.6v3.2H8v.8h7z"/><path d="M43.9 41.1V26.5a1.401 1.401 0 0 0-1.4-1.4h-24a1.401 1.401 0 0 0-1.4 1.4v14.6h-3V43a1.902 1.902 0 0 0 1.9 1.9h29a1.902 1.902 0 0 0 1.9-1.9v-1.9zm-26-14.6a.6.6 0 0 1 .6-.6h24a.6.6 0 0 1 .6.6v14.6h-1.2v-14H19.1v14h-1.2zm2 14.6V27.9h21.2v13.2zM46.1 43a1.101 1.101 0 0 1-1.1 1.1H16a1.101 1.101 0 0 1-1.1-1.1v-1.1h13.164A1.495 1.495 0 0 0 29.5 43h3a1.492 1.492 0 0 0 1.433-1.1H46.1z"/><path d="M34 30.9h2.884l-5.736 5.089-4.214-3.029-4.239 4.981.61.518 3.761-4.419 4.135 2.971 5.899-5.233V34h.8v-3.9H34v.8zm3.9-7.9V7.1H3.1v22.8H15v-.8h-1.546c-.021-.08-.04-.152-.044-.136a1.58 1.58 0 0 1 .462-.86 2.677 2.677 0 0 0 .486-.763 1.466 1.466 0 0 0-.056-.93 1.807 1.807 0 0 1-.099-.5c0-1.054-1.089-1.308-1.884-1.494-.356-.083-.894-.21-.97-.362-.398-.796-.04-1.212.628-1.878a2.653 2.653 0 0 0 1.03-1.831c0-.572-.31-1.512-1.137-1.595a2.261 2.261 0 0 0-1.157.19 1.825 1.825 0 0 1-.738.166c-.298 0-.618-.175-.618-.436a1.857 1.857 0 0 1 .31-.918 2.578 2.578 0 0 0 .407-1.298 3.17 3.17 0 0 0-.132-.85 2.413 2.413 0 0 1-.106-.645 1.044 1.044 0 0 1 .976-1.098c.477 0 .705.368 1.086 1.05a1.876 1.876 0 0 0 1.786.925c1.377 0 2.255-1.584 2.255-2.675a.707.707 0 0 1 .619-.736 1.176 1.176 0 0 1 .715.338 1.923 1.923 0 0 0 1.199.5c.98 0 1.386-.72 1.745-1.356a2.536 2.536 0 0 1 .899-1.087A2.644 2.644 0 0 0 22.31 7.9H37.1v9.362c-.116.067-.236.133-.343.201a1.916 1.916 0 0 1-1.076.414c-.164 0-.335-.012-.511-.024a4.623 4.623 0 0 0-1.42.07c-.321.089-.708.219-1.063.339a9.223 9.223 0 0 1-.885.274 2.082 2.082 0 0 0-.91.284 1.495 1.495 0 0 1-.556.2 2.912 2.912 0 0 1-1.845-.81 2.09 2.09 0 0 1-.425-.628c-.231-.445-.52-1-1.276-1a1.856 1.856 0 0 0-1.495 1.031c-.3.428-.502.691-.839.691a1.58 1.58 0 0 1-.555-.143 2.268 2.268 0 0 0-.84-.197c-.678 0-1.434.475-1.434 1.156v1.168c0 .312-.17.499-.472.8a1.88 1.88 0 0 0-.707 1.37 1.232 1.232 0 0 0 .343.781l.321-.239.267-.31c-.092-.12-.13-.173-.13-.232 0-.314.17-.5.473-.804a1.878 1.878 0 0 0 .705-1.366V19.12c0-.147.328-.355.635-.355a1.575 1.575 0 0 1 .553.143 2.283 2.283 0 0 0 .841.196 1.854 1.854 0 0 0 1.494-1.03c.302-.428.504-.691.84-.691.239 0 .33.114.567.569a2.77 2.77 0 0 0 .606.86 3.635 3.635 0 0 0 2.373 1.008 2.08 2.08 0 0 0 .912-.284 1.498 1.498 0 0 1 .554-.2 4.634 4.634 0 0 0 1.14-.317c.342-.115.712-.24 1.02-.325a3.843 3.843 0 0 1 1.155-.043c.194.013.383.025.564.025a2.511 2.511 0 0 0 1.419-.485V23zM20.734 10.12a3.23 3.23 0 0 0-1.215 1.396c-.351.624-.557.95-1.047.95a1.178 1.178 0 0 1-.717-.338 1.92 1.92 0 0 0-1.198-.5 1.5 1.5 0 0 0-1.418 1.536c0 .643-.567 1.875-1.455 1.875a1.105 1.105 0 0 1-1.106-.548c-.373-.669-.796-1.427-1.766-1.427a1.841 1.841 0 0 0-1.776 1.897 3.159 3.159 0 0 0 .131.848 2.405 2.405 0 0 1 .107.648 1.855 1.855 0 0 1-.31.915 2.584 2.584 0 0 0-.407 1.3 1.327 1.327 0 0 0 1.417 1.236 2.573 2.573 0 0 0 1.03-.221 1.45 1.45 0 0 1 .784-.14c.278.028.418.528.418.8 0 .47-.368.839-.795 1.264-.648.647-1.454 1.451-.778 2.802.245.489.856.632 1.504.783.876.205 1.266.357 1.266.715a2.482 2.482 0 0 0 .131.725.896.896 0 0 1 .067.443 2.159 2.159 0 0 1-.353.523 2.228 2.228 0 0 0-.638 1.361.59.59 0 0 0 .018.136H3.9V7.9h17.602c.139.9.089 1.756-.768 2.22z"/></svg>
