<svg xmlns="http://www.w3.org/2000/svg" viewBox="0 0 48 48" id="icon"><path d="M37.396 37.211l3.898 2.274L27.5 47.53l-13.794-8.046 3.898-2.274.794.463-3.104 1.81 3.736 2.18a19.35 19.35 0 0 1 3.408-1.633l.892.52-.418.148a18.678 18.678 0 0 0-3.078 1.435l7.666 4.471 6.635-3.87-3.105-1.81.794-.464 3.105 1.81 3.174-1.851a24.69 24.69 0 0 0-4.61-.932l1.123-.656a23.867 23.867 0 0 1 4.414 1.047l.676-.394-3.105-1.81zm1.012-22.16A11.768 11.768 0 0 0 26.35 4.767a11.829 11.829 0 0 0-10.613 5.857 7.369 7.369 0 0 0-2.312-.374 7.457 7.457 0 0 0-7.437 7.87A9.797 9.797 0 0 0 9.9 36.9H12v-.8H9.9a8.997 8.997 0 0 1-3.342-17.352l.278-.111a8.811 8.811 0 0 1-.061-.937 6.635 6.635 0 0 1 9.01-6.21l.332.126.164-.316A11.006 11.006 0 0 1 26.35 5.566a10.973 10.973 0 0 1 11.295 9.882l.031.326.326.034a10.176 10.176 0 0 1 3.578 19.168l.366.71a10.976 10.976 0 0 0-3.538-20.635zm-1.036 15.168l3.922 2.287L27.5 40.552l-13.794-8.046 3.922-2.287.794.463-3.128 1.824 2.197 1.282 3.127-1.825.795.463-3.128 1.825 6.674 3.893 12.206-7.12-.587-.342zm2.334 2.287l-1.747-1.019-12.206 7.12 1.747 1.02zM23.9 24.5a.6.6 0 1 0 .6-.6.6.6 0 0 0-.6.6zm-.4 2.1a.9.9 0 1 1-.9.9.901.901 0 0 1 .9-.9zm4-9.146L13.706 25.5 27.5 33.546 41.294 25.5zM39.706 25.5l-10.382 6.056c-.495-.69-.525-.943-.525-.99a2.049 2.049 0 0 1 .431-1.192 2.2 2.2 0 0 0 .455-1.225 1.905 1.905 0 0 0-1.077-1.504c-.43-.299-.693-.5-.693-.77a4.37 4.37 0 0 1 .212-.648 4.912 4.912 0 0 0 .4-1.514 1.354 1.354 0 0 0-.502-1.094 34.71 34.71 0 0 0-3.484-2.514L27.5 18.38zm-24.412 0l8.47-4.941a34.305 34.305 0 0 1 3.753 2.677.567.567 0 0 1 .21.477 4.636 4.636 0 0 1-.35 1.233 3.07 3.07 0 0 0-.262.926c0 .713.575 1.11 1.038 1.43.455.316.732.53.732.847a1.491 1.491 0 0 1-.328.793A2.805 2.805 0 0 0 28 30.566a2.53 2.53 0 0 0 .63 1.395l-1.13.66zm17.206-.9a.9.9 0 1 1-.9.9.901.901 0 0 1 .9-.9z"/></svg>
