<svg xmlns="http://www.w3.org/2000/svg" viewBox="0 0 48 48" id="icon"><path d="M11.5 27.7a1.8 1.8 0 1 1-1.8 1.8 1.802 1.802 0 0 1 1.8-1.8zm-.75 1.8a.75.75 0 1 0 .75-.75.751.751 0 0 0-.75.75zM28.5 14.7a1.8 1.8 0 1 0 1.8 1.8 1.802 1.802 0 0 0-1.8-1.8zm0 2.55a.75.75 0 1 1 .75-.75.751.751 0 0 1-.75.75zm4 12.45a1.8 1.8 0 1 0 1.8 1.8 1.802 1.802 0 0 0-1.8-1.8zm0 2.55a.75.75 0 1 1 .75-.75.751.751 0 0 1-.75.75zm3-13.55a1.8 1.8 0 1 0 1.8 1.8 1.802 1.802 0 0 0-1.8-1.8zm0 2.55a.75.75 0 1 1 .75-.75.751.751 0 0 1-.75.75zm-29 1.45a1.8 1.8 0 1 1-1.8 1.8 1.802 1.802 0 0 1 1.8-1.8zm-.75 1.8a.75.75 0 1 0 .75-.75.751.751 0 0 0-.75.75zm18.85-15a.9.9 0 1 0 .9-.9.901.901 0 0 0-.9.9zm7 4a.9.9 0 1 0 .9-.9.901.901 0 0 0-.9.9zm-2 23a.9.9 0 1 0 .9-.9.901.901 0 0 0-.9.9zm-12.9 3a.9.9 0 1 0 .9-.9.901.901 0 0 0-.9.9zm-3.1-15a.9.9 0 1 0 .9-.9.901.901 0 0 0-.9.9zm2.083-4.575l-.596-.596a9.32 9.32 0 0 0-.874 2.711l.79.124a8.493 8.493 0 0 1 .68-2.239zm-5.838-5.838l-.466-.466c-.038-.038-.065-.083-.1-.123a17.337 17.337 0 0 0-3.082 8.162l.795.084a16.527 16.527 0 0 1 2.853-7.657zm2.307 2.307a13.347 13.347 0 0 0-1.625 10.469l.774-.202a12.555 12.555 0 0 1 1.433-9.685zM7.31 27.179l-.78.177a17.427 17.427 0 0 0 8.715 11.459l.38-.704A16.632 16.632 0 0 1 7.31 27.179zm6.344 4.177l-.625.5A13.348 13.348 0 0 0 23.5 36.9v-.8a12.55 12.55 0 0 1-9.845-4.745zm1.85-4.688l-.744.295A9.36 9.36 0 0 0 23.5 32.9v-.8a8.563 8.563 0 0 1-7.995-5.433zm4.33 13.844a17.43 17.43 0 0 0 3.665.388v-.8a16.626 16.626 0 0 1-3.497-.37zm1.704 3.496l-.074.797A21.4 21.4 0 0 1 2.198 25.568l.797-.076A20.597 20.597 0 0 0 21.54 44.008zm0-41.016l-.074-.797a21.388 21.388 0 0 0-19.272 19.3l.796.075A20.586 20.586 0 0 1 21.54 2.992zm22.466 18.519l.797-.076a21.401 21.401 0 0 0-19.267-19.24l-.074.797a20.598 20.598 0 0 1 18.544 18.519zM25.46 44.008l.075.797a21.388 21.388 0 0 0 19.272-19.303l-.797-.074a20.586 20.586 0 0 1-18.55 18.58zM20.699 23.5a2.772 2.772 0 0 1 .566-1.67L11.217 11.784l.566-.566 10.048 10.048A2.775 2.775 0 0 1 23.5 20.7a2.8 2.8 0 1 1-2.8 2.8zm2.801-2a2 2 0 1 0 2 2 2.003 2.003 0 0 0-2-2zM23.9 0h-.8v3h.8zm20.131 23.069v.8h3v-.8zM23.1 47h.8v-3h-.8zM3.031 23.131h-3v.8h3z"/></svg>
