<svg xmlns="http://www.w3.org/2000/svg" viewBox="0 0 48 48" id="icon"><path d="M18 37.9h-7.1V45h-.8v-7.1H3v-.8h7.1V30h.8v7.1H18zM11 17H9v2h2zm3-8v4h4V9zm3 3h-2v-2h2zm16 21h-2v2h2zm-5 4h-1v1h1zm8-9v3h3v-3zm2 2h-1v-1h1zM32.1 3.1v13.148l3.106-4.348H44.9V3.1zm12 8h-9.306L32.9 13.752V3.9h11.2zM42 6.9h-7v-.8h7zm0 2h-7v-.8h7zm-.833 4.6h-.936a19.413 19.413 0 0 1 2.755 9.6H32.83a9.348 9.348 0 0 0-8.93-8.93V4.02a19.412 19.412 0 0 1 6.6 1.289v-.847A20.247 20.247 0 0 0 3.22 23.1l-.004.8a20.345 20.345 0 0 0 3.93 11.6h.997a19.538 19.538 0 0 1-4.126-11.6H14.17a9.348 9.348 0 0 0 8.93 8.93v10.155a19.346 19.346 0 0 1-10.6-3.395v.957A20.27 20.27 0 0 0 43.78 23.9l.006-.8a20.23 20.23 0 0 0-2.619-9.6zM4.02 23.1A19.502 19.502 0 0 1 23.1 4.02v10.15a9.348 9.348 0 0 0-8.93 8.93zm10.93.4a8.55 8.55 0 1 1 8.55 8.55 8.56 8.56 0 0 1-8.55-8.55zm8.95 19.48V32.83a9.348 9.348 0 0 0 8.93-8.93h10.15A19.502 19.502 0 0 1 23.9 42.98zm-.4-22.83a3.35 3.35 0 1 0 3.35 3.35 3.354 3.354 0 0 0-3.35-3.35zm0 5.9a2.55 2.55 0 1 1 2.55-2.55 2.553 2.553 0 0 1-2.55 2.55z"/></svg>
