<svg xmlns="http://www.w3.org/2000/svg" viewBox="0 0 48 48" id="icon"><path d="M41.242 38.49a13.374 13.374 0 0 0-4.405-19.792 13.276 13.276 0 0 0-3.37-10.155 13.421 13.421 0 0 0-12.939-4.112 13.24 13.24 0 0 0-4.617 2.03l-.003-.004c-.022.015-.042.033-.065.048-.039.028-.081.05-.12.078l.006.008a13.44 13.44 0 0 0-2.812 2.688 13.712 13.712 0 0 0-1.039 1.57l-.01-.005c-.056.096-.104.196-.157.294-.039.072-.086.14-.124.214l.009.004A13.407 13.407 0 0 0 10.1 17.5c0 .403.032.8.067 1.196a13.39 13.39 0 1 0 13.32 23.217 13.384 13.384 0 0 0 15.356-.927 13.494 13.494 0 0 0 1.92-1.91l.02.017c.1-.121.189-.25.285-.374.059-.076.13-.142.186-.219zm-2.897 1.871a12.587 12.587 0 0 1-14.112 1.064 13.38 13.38 0 0 0 1.639-20.503l-.56.572a12.603 12.603 0 1 1-15.037-1.944 13.354 13.354 0 0 0 13.247 11.346 14.064 14.064 0 0 0 3.169-.365l-.18-.779a12.708 12.708 0 0 1-10.847-2.384 12.581 12.581 0 0 1-3.172-15.983 12.828 12.828 0 0 1 1.057-1.616 12.648 12.648 0 0 1 2.757-2.612 12.456 12.456 0 0 1 4.4-1.946 12.627 12.627 0 0 1 12.166 3.867 12.47 12.47 0 0 1 3.185 9.243 13.368 13.368 0 0 0-18.317 8.075l.762.245a12.587 12.587 0 1 1 19.843 13.72z"/></svg>
