<?xml version="1.0" encoding="utf-8"?>
<!-- Generator: Adobe Illustrator 20.0.0, SVG Export Plug-In . SVG Version: 6.00 Build 0)  -->
<svg version="1.1" xmlns="http://www.w3.org/2000/svg" xmlns:xlink="http://www.w3.org/1999/xlink" x="0px" y="0px" width="24px"
	 height="24px" viewBox="0 0 24 24" enable-background="new 0 0 24 24" xml:space="preserve">
<g id="Dark_Theme_1_" display="none">
	<rect x="-32" y="-64" display="inline" fill="#333333" width="544" height="736"/>
	
		<rect x="-64" y="-96" display="inline" fill="none" stroke="#808080" stroke-width="0.25" stroke-miterlimit="10" width="612" height="792"/>
</g>
<g id="LightTheme" display="none">
	<rect x="-32" y="-64" display="inline" fill="#F8F8F8" width="544" height="736"/>
	
		<rect x="-64" y="-96" display="inline" fill="none" stroke="#808080" stroke-width="0.25" stroke-miterlimit="10" width="612" height="792"/>
</g>
<g id="Hover" display="none">
	<rect x="-32" y="-64" display="inline" fill="#C5E5F9" width="544" height="736"/>
</g>
<g id="Selected" display="none">
	<rect x="-32" y="-64" display="inline" fill="#AADBFA" width="544" height="736"/>
</g>
<g id="Icon_Name">
</g>
<g id="Icons">
	<polygon fill="none" stroke="#4D4D4D" stroke-width="2" stroke-miterlimit="10" points="4.25,4 23,5 23,12.321105 5.75,14 	"/>
	<path fill="none" stroke="#4D4D4D" stroke-width="2" stroke-miterlimit="10" d="M4.3508,4.2394576L3.9688818,2.348561
		c-0.0716667-0.392656-0.3699679-0.7050886-0.758889-0.7948396L0.1976,1"/>
	<path fill="none" stroke="#4D4D4D" stroke-width="2" stroke-miterlimit="10" d="M10,20.9400005C10,22.044569,9.1045694,23,8,23
		s-2-0.8954296-2-2s0.8954306-2,2-2S10,19.8354301,10,20.9400005z"/>
	<path fill="none" stroke="#4D4D4D" stroke-width="2" stroke-miterlimit="10" d="M22,20.9400005C22,22.044569,21.1045704,23,20,23
		s-2-0.8954296-2-2s0.8954296-2,2-2S22,19.8354301,22,20.9400005z"/>
	<line fill="none" stroke="#4D4D4D" stroke-width="2" stroke-miterlimit="10" x1="8" y1="17" x2="8" y2="19"/>
	<path fill="none" stroke="#4D4D4D" stroke-width="2" stroke-miterlimit="10" d="M20.5039997,18.6510925
		C20.5039997,17.2167664,19.5149021,17,18.8060188,17H6.2803416c-0.3079762,0-1.0019732-0.0169086-1.1914773-0.2596798
		c-0.1895037-0.2427711-0.2565737-0.4968185-0.1818089-0.7955818L5.75,14"/>
</g>
</svg>
