<svg id="icons" xmlns="http://www.w3.org/2000/svg" viewBox="0 0 48 48"><defs><style>.cls-1{fill:#231f20;}.cls-2{fill:none;}</style></defs><title>education-48</title><path class="cls-1" d="M46.8867,19.709,23.5,7.5488.1133,19.709,5.1,22.1559V41H5.9V22.5489L9.1,24.1188v9.6273c0,2.207,7.748,5.874,14.2471,8.5625l.1533.0635.1533-.0625C30.1523,39.6211,37.9,35.9531,37.9,33.7461V24.1188ZM23.5,8.4512,45.1133,19.6875,23.5,30.2949,6.8589,22.1277l16.6938-2.2313-.1055-.793-17.88,2.3906-3.681-1.8066ZM37.1,33.7461c0,1.27-5.458,4.3828-13.6,7.7607-8.1416-3.3789-13.6-6.4922-13.6-7.7607V24.5118l13.6,6.6737,13.6-6.6737Z"/><rect class="cls-2" width="48" height="48"/></svg>