<svg id="icons" xmlns="http://www.w3.org/2000/svg" viewBox="0 0 48 48"><defs><style>.cls-1{fill:#231f20;}.cls-2{fill:none;}</style></defs><title>location-strategy-48</title><path class="cls-1" d="M11.5,27.7a1.8,1.8,0,1,1-1.8,1.8A1.8017,1.8017,0,0,1,11.5,27.7Zm-.75,1.8a.75.75,0,1,0,.75-.75A.751.751,0,0,0,10.75,29.5ZM28.5,14.7a1.8,1.8,0,1,0,1.8,1.8A1.8017,1.8017,0,0,0,28.5,14.7Zm0,2.55a.75.75,0,1,1,.75-.75A.751.751,0,0,1,28.5,17.25Zm4,12.45a1.8,1.8,0,1,0,1.8,1.8A1.8017,1.8017,0,0,0,32.5,29.7Zm0,2.55a.75.75,0,1,1,.75-.75A.751.751,0,0,1,32.5,32.25Zm3-13.55a1.8,1.8,0,1,0,1.8,1.8A1.8017,1.8017,0,0,0,35.5,18.7Zm0,2.55a.75.75,0,1,1,.75-.75A.751.751,0,0,1,35.5,21.25ZM6.5,22.7a1.8,1.8,0,1,1-1.8,1.8A1.8017,1.8017,0,0,1,6.5,22.7Zm-.75,1.8a.75.75,0,1,0,.75-.75A.751.751,0,0,0,5.75,24.5ZM24.6,9.5a.9.9,0,1,0,.9-.9A.9011.9011,0,0,0,24.6,9.5Zm7,4a.9.9,0,1,0,.9-.9A.9011.9011,0,0,0,31.6,13.5Zm-2,23a.9.9,0,1,0,.9-.9A.9011.9011,0,0,0,29.6,36.5Zm-12.9,3a.9.9,0,1,0,.9-.9A.9011.9011,0,0,0,16.7,39.5Zm-3.1-15a.9.9,0,1,0,.9-.9A.9011.9011,0,0,0,13.6,24.5Zm2.0828-4.575-.5958-.5958a9.3194,9.3194,0,0,0-.8742,2.7112l.791.124A8.4933,8.4933,0,0,1,15.6829,19.925Zm-5.838-5.838-.4659-.4659c-.0383-.0383-.0647-.0832-.1-.123A17.3368,17.3368,0,0,0,6.1973,21.66l.7949.084A16.5275,16.5275,0,0,1,9.8448,14.087Zm2.3069,2.3069a13.3472,13.3472,0,0,0-1.6245,10.4688l.7734-.2012a12.5545,12.5545,0,0,1,1.433-9.6857ZM7.3105,27.1792l-.7793.1768a17.4271,17.4271,0,0,0,8.7148,11.459l.3809-.7041A16.6319,16.6319,0,0,1,7.3105,27.1792Zm6.3447,4.1763-.625.5A13.3475,13.3475,0,0,0,23.5,36.9v-.8A12.55,12.55,0,0,1,13.6553,31.3555Zm1.85-4.688-.7441.2959A9.36,9.36,0,0,0,23.5,32.9v-.8A8.5628,8.5628,0,0,1,15.5049,26.6675Zm4.33,13.8442A17.43,17.43,0,0,0,23.5,40.9v-.8a16.6262,16.6262,0,0,1-3.4971-.3706Zm1.7041,3.4961-.0742.7969A21.4006,21.4006,0,0,1,2.1982,25.5684l.7969-.0762A20.597,20.597,0,0,0,21.5391,44.0078Zm0-41.0156-.0742-.7969a21.3881,21.3881,0,0,0-19.2725,19.3l.7969.0742A20.5861,20.5861,0,0,1,21.5391,2.9922ZM44.0049,21.5107l.7969-.0762A21.4013,21.4013,0,0,0,25.5352,2.1953l-.0742.7969A20.5977,20.5977,0,0,1,44.0049,21.5107ZM25.4609,44.0078l.0752.7969A21.3883,21.3883,0,0,0,44.8076,25.5024l-.7969-.0742A20.5863,20.5863,0,0,1,25.4609,44.0078ZM20.6992,23.5a2.7722,2.7722,0,0,1,.5657-1.6692L11.2168,11.7827l.5664-.5654L21.831,21.2651A2.7746,2.7746,0,0,1,23.5,20.7a2.8,2.8,0,1,1-2.8008,2.8Zm2.8008-2a2,2,0,1,0,2,2A2.0026,2.0026,0,0,0,23.5,21.5ZM23.9,0H23.1V3H23.9ZM44.0313,23.0688v.8h3v-.8ZM23.1,47H23.9V44H23.1ZM3.0313,23.1313h-3v.8h3Z"/><rect class="cls-2" width="48" height="48"/></svg>