<svg id="icons" xmlns="http://www.w3.org/2000/svg" viewBox="0 0 48 48"><defs><style>.cls-1{fill:#231f20;}.cls-2{fill:none;}</style></defs><title>operational-intelligence-48</title><path class="cls-1" d="M18,37.9H10.9V45H10.1V37.9H3v-.8h7.1V30H10.9v7.1H18ZM11,17H9v2h2Zm3-8v4h4V9Zm3,3H15V10h2ZM33,33H31v2h2Zm-5,4H27v1h1Zm8-9v3h3V28Zm2,2H37V29h1ZM32.1,3.1V16.248L35.2061,11.9H44.9V3.1Zm12,8H34.7939L32.9,13.752V3.9H44.1ZM42,6.9H35V6.1h7Zm0,2H35V8.1h7Zm-.8326,4.6h-.9368a19.4127,19.4127,0,0,1,2.7549,9.6H32.83a9.3478,9.3478,0,0,0-8.93-8.93V4.0191a19.4115,19.4115,0,0,1,6.6,1.2894V4.462A20.2474,20.2474,0,0,0,3.2195,23.1l-.003.8a20.3448,20.3448,0,0,0,3.93,11.6H8.143A19.5383,19.5383,0,0,1,4.0173,23.9H14.17a9.3478,9.3478,0,0,0,8.93,8.93V42.9847a19.3461,19.3461,0,0,1-10.6-3.3942v.9561A20.27,20.27,0,0,0,43.7805,23.9l.0057-.8A20.23,20.23,0,0,0,41.1674,13.5ZM4.02,23.1A19.5022,19.5022,0,0,1,23.1,4.02V14.17a9.3478,9.3478,0,0,0-8.93,8.93Zm10.93.4a8.55,8.55,0,1,1,8.55,8.55A8.56,8.56,0,0,1,14.95,23.5ZM23.9,42.98V32.83a9.3478,9.3478,0,0,0,8.93-8.93H42.98A19.5022,19.5022,0,0,1,23.9,42.98Zm-.4-22.83a3.35,3.35,0,1,0,3.3506,3.35A3.3541,3.3541,0,0,0,23.5,20.15Zm0,5.9a2.55,2.55,0,1,1,2.55-2.55A2.5527,2.5527,0,0,1,23.5,26.05Z"/><rect class="cls-2" width="48" height="48"/></svg>