<svg id="icons" xmlns="http://www.w3.org/2000/svg" width="48" height="48" viewBox="0 0 48 48">
  <title>sustainable-development-48</title>
  <path d="M41.24225,38.49091a13.37439,13.37439,0,0,0-4.40564-19.79333A13.27638,13.27638,0,0,0,33.46729,8.543a13.42134,13.42134,0,0,0-12.939-4.1123,13.23958,13.23958,0,0,0-4.61688,2.03107L15.9082,6.457c-.02228.01538-.04266.033-.06488.04846-.03931.02747-.0816.04956-.12067.07751l.00586.00818A13.44092,13.44092,0,0,0,12.917,9.2793a13.71232,13.71232,0,0,0-1.039,1.57062l-.0108-.00616c-.05524.09631-.10315.19629-.15588.29388-.03918.07214-.08618.1413-.1239.21393l.00818.00427A13.40693,13.40693,0,0,0,10.1001,17.5c0,.40259.0321.79968.06714,1.19592A13.38953,13.38953,0,1,0,23.48682,41.91266a13.38444,13.38444,0,0,0,15.356-.92633,13.49407,13.49407,0,0,0,1.92041-1.90955l.019.016c.10107-.12079.18951-.25012.286-.37415.05878-.07544.12909-.142.18616-.21863Zm-2.89752,1.87042A12.5874,12.5874,0,0,1,24.2326,41.42462a13.38013,13.38013,0,0,0,1.639-20.50275l-.55957.57227a12.6029,12.6029,0,1,1-15.03693-1.94385A13.35382,13.35382,0,0,0,23.522,30.89551a14.06357,14.06357,0,0,0,3.16895-.36426l-.17969-.7793a12.70808,12.70808,0,0,1-10.84717-2.38379,12.581,12.581,0,0,1-3.17249-15.983,12.82766,12.82766,0,0,1,1.05725-1.61566,12.64826,12.64826,0,0,1,2.757-2.61212,12.45619,12.45619,0,0,1,4.39923-1.94647,12.62741,12.62741,0,0,1,12.167,3.86719,12.46919,12.46919,0,0,1,3.18481,9.24323,13.36843,13.36843,0,0,0-18.31665,8.07513l.76172.24414a12.587,12.587,0,1,1,19.84277,13.7207Z"/>
</svg>
