<svg id="icons" xmlns="http://www.w3.org/2000/svg" viewBox="0 0 24 24"><path d="M7.74 16.88c-1.96-.477-3.639-1.333-4.781-2.48-.95-.954-1.45-2.052-1.445-3.175.013-3.47 4.755-6.474 10.355-6.558l.15-.001c1.37 0 1.437-.016 1.767.39.33.404-.017.928-.18 1.476-.284.965-.716 2.423.656 3.124.559.285 1.223.454 1.938.562l1.866-1.345c-1.206-.068-2.369-.184-3.115-.566-.198-.1-.175-.39.108-1.344.258-.873.579-1.958-.06-2.814-.508-.68-1.455-.998-2.98-.998l-.172.002C5.33 3.25.017 6.87 0 11.219c-.006 1.535.646 3.004 1.886 4.248 1.017 1.022 2.383 1.843 3.963 2.417.42-.47.995-.84 1.89-1.005zm13.253-6.272c.62.098 1.11.251 1.247.504.347.637.324 1.276-.07 1.953-1.12 1.929-4.894 3.655-8.732 4.12l-2.009 1.637c.13 0 .26 0 .392-.003 4.974-.106 10.095-2.3 11.659-4.993.661-1.14.692-2.33.09-3.438-.26-.478-.698-.791-1.253-1"/><path d="M9.496 9C8.668 9.023 7.998 8.371 8 7.543s.676-1.519 1.504-1.543c.828-.025 1.498.627 1.496 1.455s-.676 1.519-1.504 1.543zM5.496 11A1.443 1.443 0 0 1 4 9.543c.002-.828.676-1.519 1.504-1.543S7.002 8.628 7 9.456s-.676 1.519-1.504 1.543zM6.496 15c-.828.024-1.498-.628-1.496-1.456s.676-1.519 1.504-1.543 1.498.627 1.496 1.455-.676 1.519-1.504 1.543zM9.464 19.382l-1.452-1.754s-1.75-.073-1.757 1.454c-.008 1.51-1.826 2.487-1.826 2.487l.004.003h.002c.032.02 1.52.908 3.385.066 1.481-.67 1.644-2.256 1.644-2.256zM15.14 11.914l-6.479 5.279 1.423 1.75 6.48-5.28 6.88-6.343.437-.355-.355-.44-.356-.433-.438.352"/></svg>
