<svg id="icons" xmlns="http://www.w3.org/2000/svg" viewBox="0 0 24 24"><path d="M17 18l-5.5 6L6 18h4v-8h3v8h4zm3.415-11.703C19.919 2.737 17.009 0 13.482 0c-2.643 0-4.94 1.534-6.138 3.796a3.95 3.95 0 0 0-1.02-.15c-1.947 0-3.396 1.433-3.53 3.245C1.146 7.728 0 9.418 0 11.371 0 14.022 2.195 16 4.405 16h2.532v-1.8H4.405c-1.17 0-2.582-1.15-2.582-2.83 0-1.21.691-2.313 1.804-2.877l.91-.463.076-1.008c.068-.928.771-1.575 1.71-1.575.147 0 .325.028.545.086l1.413.378.678-1.28c.924-1.747 2.658-2.83 4.523-2.83 2.547 0 4.75 2.038 5.128 4.742l.154 1.113 1.081.35a3.375 3.375 0 0 1 2.332 3.22c0 1.76-1.412 2.974-2.582 2.974H16.05V16h3.545C21.75 16 24 14.001 24 11.226a5.186 5.186 0 0 0-3.585-4.929z"/></svg>