<?xml version="1.0" encoding="utf-8"?>
<!-- Generator: Adobe Illustrator 20.0.0, SVG Export Plug-In . SVG Version: 6.00 Build 0)  -->
<!DOCTYPE svg PUBLIC "-//W3C//DTD SVG 1.1//EN" "http://www.w3.org/Graphics/SVG/1.1/DTD/svg11.dtd">
<svg version="1.1" id="Layer_1" xmlns="http://www.w3.org/2000/svg" xmlns:xlink="http://www.w3.org/1999/xlink" x="0px" y="0px"
	 viewBox="0 0 24 24" enable-background="new 0 0 24 24" xml:space="preserve">
<g>
	<path d="M15.6091309,14.5314941l8.1328125,8.1323242l-1.078125,1.078125l-8.15625-8.1796875l-0.1875,0.1875
		c-0.84375,0.671875-1.7734375,1.1640625-2.7890625,1.4765625s-2.0390625,0.4453125-3.0703125,0.3984375
		c-1.0307617-0.046875-2.034668-0.28125-3.0112305-0.703125s-1.8554688-1.0234375-2.6367188-1.8041992
		c-0.859375-0.859375-1.5-1.8242188-1.921875-2.8945312s-0.6328125-2.1601562-0.6328125-3.2695312
		s0.2109375-2.1992188,0.6328125-3.2695312s1.0625-2.0273438,1.921875-2.8710938c0.84375-0.859375,1.8007812-1.5,2.8710938-1.921875
		s2.159668-0.6328125,3.269043-0.6328125s2.1992188,0.2109375,3.2695312,0.6328125s2.0351562,1.0625,2.8945312,1.921875
		c0.78125,0.78125,1.3828125,1.6640625,1.8046875,2.6484375s0.65625,1.9921875,0.703125,3.0234375
		s-0.0898438,2.0546875-0.4101562,3.0703125s-0.8242188,1.953125-1.5117188,2.8125l-0.140625,0.140625L15.6091309,14.5314941z
		 M8.9060059,16.1247559c0.796875,0,1.5742188-0.1289062,2.3320312-0.3867188
		c0.7578125-0.2573242,1.4570312-0.628418,2.0976562-1.112793l1.2421875-1.265625
		c0.5625-0.71875,0.9726562-1.4960938,1.2304688-2.3320312s0.3632812-1.6796875,0.3164062-2.53125
		s-0.2460938-1.6757812-0.5976562-2.4726562s-0.8476562-1.515625-1.4882812-2.15625
		c-0.671875-0.6875-1.4453125-1.2109375-2.3203125-1.5703125s-1.796875-0.5390625-2.765625-0.5390625
		S7.0627441,1.9377441,6.1877441,2.2971191S4.5393066,3.1799316,3.8674316,3.8674316
		c-0.703125,0.703125-1.2304688,1.4960938-1.5820312,2.3789062S1.7580566,8.0314941,1.7580566,8.9533691
		s0.1757812,1.8242188,0.5273438,2.7070312s0.8789062,1.6757812,1.5820312,2.3789062
		c0.671875,0.671875,1.4414062,1.1875,2.3085938,1.5463867C7.0432129,15.9450684,7.9528809,16.1247559,8.9060059,16.1247559z"/>
</g>
</svg>
