<svg xmlns="http://www.w3.org/2000/svg">
	<symbol id="logo" viewBox="0 0 61 30">
		<path d="M54.626 9.837h4.903v19.615h-4.903zm-39.62 14.102c-1.155 1.215-2.636 2.08-4.763 2.08-2.739 0-4.946-1.76-5.274-4.658h14.958v-1.348c0-6.827-3.717-10.666-9.197-10.666C4.806 9.347.067 13.472.067 19.643c0 6.171 4.74 10.3 10.663 10.3 2.702 0 5.245-.84 7.37-2.91l-3.094-3.094zm-4.97-10.917c3.066 0 4.947 1.8 4.989 4.66H4.969c.37-2.821 2.168-4.66 5.068-4.66zm16.73 2.332c0-1.472 1.555-2.085 2.864-2.085 1.664 0 2.888.688 3.826 1.986l3.119-3.116c-1.615-2.016-4.292-2.792-6.825-2.792-3.963 0-7.888 1.958-7.888 6.334 0 7.48 10.585 4.29 10.585 8.335 0 1.553-1.839 2.248-3.27 2.248-2.078 0-3.383-1.016-4.648-2.4l-3.167 3.166c1.99 2.156 4.561 2.914 7.53 2.914 4.005 0 8.461-1.636 8.461-6.296 0-7.642-10.587-4.78-10.587-8.294zM52.14 9.629c-.566-.16-1.134-.282-1.741-.282-2.576 0-4.743 1.347-5.807 3.592h-.078V9.837H39.61v19.615h4.904V18.948c0-1.062.652-4.945 5.271-4.945.71 0 1.42.141 2.165.32l.19-4.694zm4.896-9.685c1.864 0 3.304 1.35 3.304 3.134 0 1.787-1.44 3.138-3.304 3.138-1.863 0-3.216-1.483-3.216-3.138 0-1.654 1.353-3.134 3.216-3.134z"/>
	</symbol>
	<symbol id="search" viewBox="0 0 24 24">
		<path d="M15.61 14.531l8.132 8.133-1.078 1.078-8.156-8.18-.188.188c-.844.672-1.773 1.164-2.789 1.476s-2.04.446-3.07.399a8.513 8.513 0 0 1-5.648-2.508c-.86-.859-1.5-1.824-1.922-2.894s-.633-2.16-.633-3.27.211-2.199.633-3.27 1.062-2.027 1.922-2.87c.843-.86 1.8-1.5 2.87-1.922s2.16-.633 3.27-.633 2.2.211 3.27.633 2.035 1.062 2.894 1.922a8.406 8.406 0 0 1 1.805 2.648 8.61 8.61 0 0 1 .293 6.094 8.626 8.626 0 0 1-1.512 2.812l-.14.141.046.023zm-6.704 1.594c.797 0 1.574-.13 2.332-.387a7.404 7.404 0 0 0 2.098-1.113l1.242-1.265a7.209 7.209 0 0 0 1.547-4.864 7.071 7.071 0 0 0-2.086-4.629c-.672-.687-1.445-1.21-2.32-1.57s-1.797-.539-2.766-.539-1.89.18-2.765.54-1.649.882-2.32 1.57c-.704.703-1.231 1.496-1.583 2.378s-.527 1.785-.527 2.707.176 1.825.527 2.707.88 1.676 1.582 2.38a7.049 7.049 0 0 0 2.309 1.546 7.06 7.06 0 0 0 2.73.539z"/>
	</symbol>
	<symbol id="apps" viewBox="0 0 24 24">
		<path d="M0 0h4v4H0zm10 0h4v4h-4zm10 0h4v4h-4zM0 10h4v4H0zm10 0h4v4h-4zm10 0h4v4h-4zM0 20h4v4H0zm10 0h4v4h-4zm10 0h4v4h-4z"/>
	</symbol>
</svg>
