<svg xmlns="http://www.w3.org/2000/svg" viewBox="0 0 510.2 254"><path fill="#1f191a" d="M482.3 0c15.8 0 28 11.4 28 26.5s-12.2 26.6-28 26.6-27.2-12.6-27.2-26.6C455 12.5 466.5 0 482.3 0m-20.4 83.8h41.5v166.1h-41.5zM126.5 203.1c-9.8 10.3-22.3 17.6-40.3 17.6-23.2 0-41.9-14.9-44.7-39.4h126.6v-11.4c0-57.8-31.5-90.3-77.9-90.3C40.1 79.6 0 114.5 0 166.8 0 219 40.1 254 90.3 254c22.9 0 44.4-7.1 62.4-24.6l-26.2-26.3zm-42.1-92.4c26 0 41.9 15.2 42.2 39.4H41.5c3.1-23.8 18.4-39.4 42.9-39.4M226 130.5c0-12.5 13.1-17.7 24.2-17.7 14.1 0 24.4 5.8 32.4 16.8l26.4-26.4c-13.7-17.1-36.3-23.6-57.8-23.6-33.6 0-66.8 16.6-66.8 53.6 0 63.3 89.6 36.3 89.6 70.6 0 13.1-15.6 19-27.7 19-17.6 0-28.7-8.6-39.3-20.3l-26.8 26.8c16.8 18.3 38.6 24.7 63.7 24.7 33.9 0 71.6-13.8 71.6-53.3.1-64.7-89.5-40.5-89.5-70.2M440.8 82c-4.8-1.4-9.6-2.4-14.7-2.4-21.8 0-40.2 11.4-49.2 30.4h-.7V83.7h-41.5v166.1h41.5v-88.9c0-9 5.5-41.9 44.6-41.9 6 0 12 1.2 18.3 2.7l1.7-39.7z"/></svg>