<svg id="icons" xmlns="http://www.w3.org/2000/svg" viewBox="0 0 48 48"><title>global-nav_green-infrastructure</title><path d="M20,16.9H0v-.8H20ZM4.23,14.2l.57.57L14.53,5l7.87,6.44.51-.62L18.4,7.17l4.1-4.1,3.26,3.26.57-.57L22.5,1.93,17.77,6.66,14.47,4ZM1.1,4A2.9,2.9,0,1,1,4,6.9,2.9,2.9,0,0,1,1.1,4Zm.8,0A2.1,2.1,0,1,0,4,1.9,2.1,2.1,0,0,0,1.9,4ZM7.39,25.67A6,6,0,0,0,5.18,28.6l.78.17a5.45,5.45,0,0,1,2-2.51c1-.9,2.05-1.82,2.05-3.08A5.65,5.65,0,0,0,6.81,18l-.41.69a4.77,4.77,0,0,1,2.77,4.5C9.17,24.08,8.3,24.85,7.39,25.67ZM14.6,36.14c-1.16-.5-2.22-1-3.15-1.49l-.37.71c.94.5,2,1,3.2,1.52Zm7.54,2.79-.25.76a226.41,226.41,0,0,0,26,6.43l.15-.79A225.47,225.47,0,0,1,22.14,38.93ZM11.61,28.85c0,1.18,0,4.77,36.34,9.1l.09-.79c-32.16-3.83-35.63-7.08-35.63-8.3a4.65,4.65,0,0,1,.66-2.25,6.89,6.89,0,0,0,.9-3.4c0-1.78-1.21-3.53-3.48-5.07l-.45.66c1.43,1,3.13,2.52,3.13,4.41a6.12,6.12,0,0,1-.81,3A5.44,5.44,0,0,0,11.61,28.85ZM30.4,8.1V9.6h1.5V20.1h1.2V4.1h3.57L38.9,6.33v7.78h2.2V11.33l4.16-4.16.34.08a.48.48,0,0,1,.3.45V24.9h-2v6h-5v1H31.1v-3h-6v-3h-3V13.1h4v-5Zm-5.3,17v-3h2V13.9H22.9V25.1Zm6,3V21.82H27.9V22.9h-2v5.2Zm12-13.19H37.93v3h-2v2.2h3v10h4.2Zm-1.2-.8h2v10h1.2V8.47l-3.2,3.2Zm-8,6h1.2v-3h2v-3h1V6.67L36.33,4.9H33.9Zm-2,.8V31.1h6.2V20.9ZM29.6,10.4V8.9H26.9v4.2h1V21h3.2V10.4ZM36.9,23h-.8v6h.8ZM42,17.1H40.11v.8H42Zm0,2H40.11v.8H42Zm-18,.73h.8V16.19H24ZM10.7,41.9H6.91V43h-.8V41.9H2.31L4,38.9H2.79l1.74-3h-1l3-5.78,3,5.78h-1l1.74,3H9Zm-7-.8H9.33l-1.71-3H8.84l-1.74-3H8.16L6.51,31.88,4.85,35.1H5.92l-1.74,3H5.4Zm18,5.8H17.91V48h-.8V46.9H13.31l1.71-3H13.79l1.74-3h-1l3-5.78,3,5.78h-1l1.74,3H20Zm-7-.8h5.64l-1.71-3h1.22l-1.74-3h1.06l-1.66-3.22L15.85,40.1h1.07l-1.74,3H16.4Z"/></svg>