<svg width="36" height="30" viewBox="0 18 36 30" xmlns="http://www.w3.org/2000/svg"><path d="M25.555 36.802c-6.237-.05-7.91-3.096-14.518-2.692-1.36.083-2.652.326-3.808.75v-5.053h13.286v3.305c3.973 1.373 12.7 1.974 12.7-3.942V18.595c0-.328-.268-.595-.6-.595H18.968c-.332 0-.6.267-.6.595v4.796h3.516v-1.906h7.828v6.38a2.346 2.346 0 0 1-2.357 2.336h-3.322v-3.102c0-.42-.344-.76-.766-.76H4.494a.763.763 0 0 0-.766.76v9.574C1.375 38.256 0 40.035 0 40.035s4.542-2.77 11.16-2.686c6.628.084 8.837 2.642 14.532 2.687 7.2.057 9.853-5.965 9.853-5.965s-2.3 2.79-9.99 2.73m-5.076 5.243c1.128.228 2.14.535 3.553.615v4.56c0 .418-.344.758-.766.758H4.494a.763.763 0 0 1-.766-.76v-5.456c.91-.27 2.183-.547 3.5-.75v2.538h9.965c1.565 0 2.688-.338 3.286-1.505" fill="#FF9F33" fill-rule="evenodd"/></svg>