
<svg width="36px" height="30px" viewBox="0 18 36 30" version="1.1" xmlns="http://www.w3.org/2000/svg" xmlns:xlink="http://www.w3.org/1999/xlink">
    <!-- Generator: Sketch 40.1 (33804) - http://www.bohemiancoding.com/sketch -->
    <desc>Created with Sketch.</desc>
    <defs></defs>
    <path d="M25.5550677,36.8020214 C19.3179735,36.7528561 17.6444447,33.7061606 11.0374742,34.1095478 C9.67559501,34.1925867 8.3852291,34.4364772 7.22948798,34.8603821 L7.22948798,29.8073969 L20.5161146,29.8073969 L20.5161146,33.1121131 C24.4892067,34.4852553 33.2165664,35.085884 33.2165664,29.1703781 L33.2165664,18.5952089 C33.2165664,18.2665375 32.9477076,18 32.6159327,18 L18.9676364,18 C18.6358615,18 18.3668073,18.2665375 18.3668073,18.5952089 L18.3668073,23.3907542 L21.8838555,23.3907542 L21.8838555,21.4841499 L29.7122187,21.4841499 L29.7122187,27.8642091 C29.7122187,29.1541188 28.6569088,30.1997509 27.3548194,30.1997509 L24.0331628,30.1997509 L24.0331628,27.0975025 C24.0331628,26.6788238 23.689469,26.3385385 23.266837,26.3385385 L4.49400604,26.3385385 C4.07176487,26.3385385 3.7280711,26.6788238 3.7280711,27.0975025 L3.7280711,36.67214 C1.37516585,38.2558797 3.12638804e-13,40.0347318 3.12638804e-13,40.0347318 C3.12638804e-13,40.0347318 4.54226776,37.2638648 11.1593986,37.3490329 C17.7880575,37.434201 19.9967638,39.9919542 25.6916464,40.036861 C32.8914348,40.0937688 35.5448523,34.0719964 35.5448523,34.0719964 C35.5448523,34.0719964 33.2439212,36.8628004 25.5550677,36.8020214 M20.4785994,42.0452798 C21.6077672,42.2734917 22.6185278,42.5800969 24.0331628,42.6600387 L24.0331628,47.2192424 C24.0331628,47.6379211 23.689469,47.9784 23.266837,47.9784 L4.49400604,47.9784 C4.07156948,47.9784 3.7280711,47.6379211 3.7280711,47.2192424 L3.7280711,41.762483 C4.63937737,41.4934292 5.91098569,41.2154715 7.22948798,41.012423 L7.22948798,43.5504326 L17.1926994,43.5504326 C18.7575904,43.5504326 19.8808966,43.2122765 20.4785994,42.0452798" id="Fill-1" stroke="none" fill="#FF9F33" fill-rule="evenodd"></path>
</svg>