<svg width="32" height="25" viewBox="15 20 32 25" xmlns="http://www.w3.org/2000/svg"><path d="M38.25 44.558h3.35v-15.07h-3.35v15.07zm-5.395 0h3.35v-11.72h-3.35v11.72zm10.79 0h3.35V34.512h-3.35v10.046zM20.763 25.58v10.606c.784.037 3.81-.118 4.744-3.898.754-3.054 3.87-3.18 4.932-3.263 2.14-.17 4.165-.72 5.208-3.444H20.762zM41.6 24.538C41.595 22.42 39.62 20 36.72 20H15v18.884a3.45 3.45 0 0 0 3.457 3.442h12.166V38.42h-10.79c-.822 0-1.49-.666-1.49-1.485V23.36h18.478c.826 0 1.43.7 1.43 1.48v2.23h3.353l-.004-2.533z" fill="#FBB400" fill-rule="evenodd"/></svg>