
<svg width="32px" height="25px" viewBox="15 20 32 25" version="1.1" xmlns="http://www.w3.org/2000/svg" xmlns:xlink="http://www.w3.org/1999/xlink">
    <!-- Generator: Sketch 39.1 (31720) - http://www.bohemiancoding.com/sketch -->
    <desc>Created with Sketch.</desc>
    <defs></defs>
    <path d="M38.2505302,44.5580837 L41.5993674,44.5580837 L41.5993674,29.4883163 L38.2505302,29.4883163 L38.2505302,44.5580837 Z M32.8551814,44.5580837 L36.2040186,44.5580837 L36.2040186,32.8371535 L32.8551814,32.8371535 L32.8551814,44.5580837 Z M43.6458791,44.5580837 L46.9947163,44.5580837 L46.9947163,34.5115721 L43.6458791,34.5115721 L43.6458791,44.5580837 Z M20.7622326,25.5813395 L20.7622326,36.1859907 C21.5462326,36.2228279 24.5733953,36.0684093 25.5062326,32.2879442 C26.2597209,29.2339907 29.3748837,29.1089674 30.4383256,29.0245023 C32.5774884,28.8542698 34.6026047,28.3037581 35.6459535,25.5813395 L20.7622326,25.5813395 Z M41.5994419,24.5374884 C41.5957209,22.4191628 39.6187907,20 36.7185116,20 L15,20 L15,38.8842791 C15,40.7847442 16.5475349,42.3255814 18.4567442,42.3255814 L30.6226977,42.3255814 L30.6226977,38.4186047 L19.8340465,38.4186047 C19.0109767,38.4186047 18.3436279,37.7542326 18.3436279,36.9346977 L18.3436279,23.3585116 L36.8213953,23.3585116 C37.6463256,23.3585116 38.2506047,24.0587907 38.2506047,24.8409302 L38.2506047,27.0697674 L41.6026047,27.0697674 L41.5994419,24.5374884 Z" id="Combined-Shape" stroke="none" fill="#FFFFFF" fill-rule="evenodd"></path>
</svg>