<svg width="31" height="27" viewBox="17 19 31 27" xmlns="http://www.w3.org/2000/svg"><path d="M45.838 30.13v13.314a2.214 2.214 0 0 1-2.205 2.223h-21.5a2.214 2.214 0 0 1-2.204-2.223v-1.11h1.93a2.493 2.493 0 0 0 2.48-2.5c0-1.38-1.114-2.5-2.48-2.5h-1.93v-2.5h1.93a2.493 2.493 0 0 0 2.48-2.5c0-1.38-1.114-2.5-2.48-2.5h-1.93v-2.5h1.93a2.493 2.493 0 0 0 2.48-2.5c0-1.38-1.114-2.5-2.48-2.5h-1.93V21.22c0-1.227.987-2.222 2.204-2.222h21.584l-3.308 3.333H26.544v20h9.5c3.43 0 6.21-2.802 6.21-6.258V33.74l3.584-3.61zM18 39.832c0 .61.496 1.11 1.102 1.11h2.757c.605 0 1.1-.5 1.1-1.11 0-.61-.495-1.11-1.1-1.11H19.1c-.606 0-1.102.5-1.102 1.11zm1.102-6.39h2.757c.605 0 1.1-.5 1.1-1.11 0-.61-.495-1.11-1.1-1.11H19.1a1.11 1.11 0 0 0 0 2.222zM18 24.834c0 .61.496 1.11 1.102 1.11h2.757c.605 0 1.1-.5 1.1-1.11 0-.61-.495-1.11-1.1-1.11H19.1c-.606 0-1.102.5-1.102 1.11zm14.753 1.595l-2.49 2.508 6.22 6.27 11.284-11.37-2.49-2.51-8.794 8.862-3.73-3.76z" fill="#50AD4E" fill-rule="evenodd"/></svg>