
<svg width="31px" height="27px" viewBox="17 19 31 27" version="1.1" xmlns="http://www.w3.org/2000/svg" xmlns:xlink="http://www.w3.org/1999/xlink">
    <!-- Generator: Sketch 40.1 (33804) - http://www.bohemiancoding.com/sketch -->
    <desc>Created with Sketch.</desc>
    <defs></defs>
    <path d="M45.8380706,30.1291667 L45.8380706,43.4444444 C45.8380706,44.6716667 44.8507838,45.6666667 43.6330749,45.6666667 L22.1343669,45.6666667 C20.9166581,45.6666667 19.9293712,44.6716667 19.9293712,43.4444444 L19.9293712,42.3333333 L21.8587425,42.3333333 C23.226391,42.3333333 24.3393626,41.2116667 24.3393626,39.8333333 C24.3393626,38.455 23.226391,37.3333333 21.8587425,37.3333333 L19.9293712,37.3333333 L19.9293712,34.8333333 L21.8587425,34.8333333 C23.226391,34.8333333 24.3393626,33.7116667 24.3393626,32.3333333 C24.3393626,30.955 23.226391,29.8333333 21.8587425,29.8333333 L19.9293712,29.8333333 L19.9293712,27.3333333 L21.8587425,27.3333333 C23.226391,27.3333333 24.3393626,26.2116667 24.3393626,24.8333333 C24.3393626,23.455 23.226391,22.3333333 21.8587425,22.3333333 L19.9293712,22.3333333 L19.9293712,21.2222222 C19.9293712,19.995 20.9166581,19 22.1343669,19 L43.7176916,19 L40.4096469,22.3333333 L26.5443583,22.3333333 L26.5443583,42.3333333 L36.0448579,42.3333333 C39.4747287,42.3333333 42.2549526,39.5313889 42.2549526,36.0747222 L42.2549526,33.7394444 L45.8380706,30.1291667 Z M18,39.8333333 C18,40.4444444 18.496124,40.9444444 19.1024978,40.9444444 L21.8587425,40.9444444 C22.4651163,40.9444444 22.9612403,40.4444444 22.9612403,39.8333333 C22.9612403,39.2222222 22.4651163,38.7222222 21.8587425,38.7222222 L19.1024978,38.7222222 C18.496124,38.7222222 18,39.2222222 18,39.8333333 L18,39.8333333 Z M19.1024978,33.4444444 L21.8587425,33.4444444 C22.4651163,33.4444444 22.9612403,32.9444444 22.9612403,32.3333333 C22.9612403,31.7222222 22.4651163,31.2222222 21.8587425,31.2222222 L19.1024978,31.2222222 C18.496124,31.2222222 18,31.7222222 18,32.3333333 C18,32.9444444 18.496124,33.4444444 19.1024978,33.4444444 L19.1024978,33.4444444 Z M18,24.8333333 C18,25.4444444 18.496124,25.9444444 19.1024978,25.9444444 L21.8587425,25.9444444 C22.4651163,25.9444444 22.9612403,25.4444444 22.9612403,24.8333333 C22.9612403,24.2222222 22.4651163,23.7222222 21.8587425,23.7222222 L19.1024978,23.7222222 C18.496124,23.7222222 18,24.2222222 18,24.8333333 L18,24.8333333 Z M32.7525237,26.4280556 L30.2628079,28.9361111 L36.4831008,35.2052778 L47.7674419,23.835 L45.2780017,21.3263889 L36.4833764,30.1880556 L32.7525237,26.4280556 Z" id="Fill-1" stroke="none" fill="#50AD4E" fill-rule="evenodd"></path>
</svg>