
<svg width="32px" height="30px" viewBox="17 18 32 30" version="1.1" xmlns="http://www.w3.org/2000/svg" xmlns:xlink="http://www.w3.org/1999/xlink">
    <!-- Generator: Sketch 40.1 (33804) - http://www.bohemiancoding.com/sketch -->
    <desc>Created with Sketch.</desc>
    <defs></defs>
    <path d="M45.8936803,24.4761697 C45.8936803,22.5582271 44.3244545,20.9890014 42.406512,20.9890014 L31.6959236,20.9890014 L29.2700999,18.5631777 C28.909427,18.2025048 28.4204762,18 27.9106024,18 L20.4871683,18 C18.5692257,18 17,19.5692257 17,21.4871683 L17,37.9266761 C17,39.7606775 18.435717,41.2718668 20.2380849,41.4011411 L24.9706704,41.4138444 L24.9706704,36.9303423 L20.9853352,36.9303423 L20.9853352,21.4871683 L26.7142546,21.4871683 L29.4033595,24.1762732 C29.5954029,24.3683166 29.8556951,24.4761697 30.127196,24.4761697 L43.1537623,24.4761697 L45.8936803,26.7179208 L45.8936803,24.4761697 Z M45.8936803,39.1720933 L45.8936803,42.9083451 C45.8936803,45.3742712 43.8761043,47.3918472 41.4101782,47.3918472 L27.9596718,47.3918472 L27.9596718,34.9376747 C27.9596718,33.0197321 29.5288976,31.4505063 31.4468401,31.4505063 L43.1537623,31.4505063 L43.1537623,28.4615049 L49,33.1940905 L43.1537623,37.9266761 L43.1537623,34.9376747 L31.945007,34.9376747 L31.945007,42.9083451 L40.9120113,42.9083451 C42.9669497,42.9083451 44.9596173,41.6629278 45.8936803,39.1720933 L45.8936803,39.1720933 Z" id="Page-1" stroke="none" fill="#E04F1D" fill-rule="evenodd"></path>
</svg>