<svg width="32" height="30" viewBox="17 18 32 30" xmlns="http://www.w3.org/2000/svg"><path d="M45.894 24.476a3.497 3.497 0 0 0-3.487-3.487h-10.71l-2.427-2.427c-.36-.36-.85-.563-1.36-.563h-7.423A3.497 3.497 0 0 0 17 21.487v16.44a3.496 3.496 0 0 0 3.238 3.474l4.733.014V36.93h-3.985V21.487h5.73l2.688 2.69c.192.19.453.3.724.3h13.027l2.74 2.24v-2.24zm0 14.696v3.736a4.497 4.497 0 0 1-4.484 4.484H27.96V34.938a3.497 3.497 0 0 1 3.487-3.487h11.707v-2.988L49 33.194l-5.846 4.733v-2.99h-11.21v7.97h8.968c2.055 0 4.048-1.244 4.982-3.735z" fill="#E04F1D" fill-rule="evenodd"/></svg>