<svg xmlns="http://www.w3.org/2000/svg">
	<symbol id="apps" viewBox="0 0 24 24">
		<path d="M0 0h4v4H0zm10 0h4v4h-4zm10 0h4v4h-4zM0 10h4v4H0zm10 0h4v4h-4zm10 0h4v4h-4zM0 20h4v4H0zm10 0h4v4h-4zm10 0h4v4h-4z"/>
	</symbol>
	<symbol id="cart" viewBox="0 0 24 24">
		<g fill="none" stroke="#4D4D4D" stroke-width="2" stroke-miterlimit="10"><path d="M4.25 4L23 5v7.321L5.75 14z"/><path d="M4.35 4.24l-.38-1.892a1 1 0 0 0-.759-.795L.198 1M10 20.94C10 22.045 9.105 23 8 23a2 2 0 1 1 0-4c1.105 0 2 .835 2 1.94zm12 0c0 1.105-.895 2.06-2 2.06a2 2 0 1 1 0-4c1.105 0 2 .835 2 1.94zM8 17v2m12.504-.349c0-1.434-.99-1.651-1.698-1.651H6.28c-.308 0-1.002-.017-1.191-.26-.19-.242-.257-.496-.182-.795L5.75 14"/></g>
	</symbol>
	<symbol id="logo" viewBox="0 0 80 30">
		<path d="M75.364 8.354h3.892v15.572h-3.892zM43.91 19.55c-.916.964-2.092 1.65-3.78 1.65-2.175 0-3.927-1.397-4.187-3.698h11.874v-1.07c0-5.42-2.95-8.467-7.302-8.467-4.701 0-8.464 3.275-8.464 8.174 0 4.899 3.763 8.177 8.464 8.177 2.146 0 4.166-.667 5.852-2.31l-2.456-2.457zm-3.944-8.667c2.433 0 3.926 1.429 3.96 3.699h-7.983c.293-2.24 1.721-3.7 4.023-3.7zm13.281 1.85c0-1.168 1.234-1.655 2.273-1.655 1.321 0 2.293.547 3.038 1.577l2.476-2.474c-1.282-1.6-3.407-2.216-5.418-2.216-3.147 0-6.262 1.555-6.262 5.028 0 5.938 8.402 3.406 8.402 6.618 0 1.232-1.459 1.783-2.594 1.783-1.65 0-2.687-.805-3.69-1.905l-2.515 2.514c1.579 1.711 3.62 2.313 5.978 2.313 3.178 0 6.717-1.298 6.717-4.997 0-6.068-8.405-3.796-8.405-6.586zm20.144-4.545c-.45-.127-.901-.223-1.383-.223-2.045 0-3.765 1.07-4.61 2.852h-.062V8.354h-3.893v15.572h3.893v-8.34c0-.842.518-3.925 4.185-3.925.564 0 1.127.113 1.718.253l.152-3.726zM77.278.5c1.48 0 2.622 1.072 2.622 2.488 0 1.419-1.143 2.491-2.622 2.491-1.48 0-2.554-1.177-2.554-2.49C74.724 1.674 75.798.5 77.278.5zM14.682 2.766c-1.217-.037-1.932.12-2.65.26-.217-.056-.621.003-.644.472 0 .252.08.447.24.562.16.114 1.493 1.1 2.473 2.142-.47.052-.98.138-1.504.247-.585-1.265-2.465-.115-3.714-.065-.146.006-.286.025-.431.035-.137-1.056-.235-2.15-.21-2.92 1.618-.917 4.748-1.593 6.875-1.626l.372-.01c.312-.003.337-.251.043-.291-2.641-.361-4.929.173-7.278 1.145C5.808 3.748 2.696 6.12.799 10.597c-.444 1.247-2.219 7.194.935 12.299 2.56 4.143 5.856 6.113 9.887 6.677 4.024.56 6.207.074 8.752-1.056 5.952-2.642 10.496-12.559 5.95-19.747-1.794-3.319-6.495-6.229-11.64-6.004zm-2.259 4.647a17.754 17.754 0 0 1 2.362-.368 15.741 15.741 0 0 1 1.748 2.54c-.805.39-1.878.688-2.315 1.313-.181.259-.225.612-.231.994a23.59 23.59 0 0 0-3.878 1.286c-.453-1.332-.85-2.659-1.124-3.842 1.297-1.237 2.814-1.438 3.438-1.923zm6.61 15.88c-.354.038-.706.083-1.016.131-.77.12-1.761.378-2.684.722-.53-.843-1.95-2.89-2.668-4.436 1.442-.71 3.457-1.304 5.775-1.445.19.33.4.66.691.956.756.774-.442 1.883-.097 4.073zm-8.603-9.14a19.41 19.41 0 0 1 3.56-1.286c-.008.333-.045.65-.182.903-.196.366-.106 1.428.134 1.775.755 1.099 2.008.488 2.952.884.432.18.72.481.963.839-1.974.124-3.91.584-5.705 1.41-.924-1.96-1.722-4.524-1.722-4.524zm.833 4.938c-.07.033-.146.074-.218.11a40.805 40.805 0 0 0-3.256-.78c-.995-.203-1.031-.15-2.151.176-.16.046-.313.087-.462.132a36.17 36.17 0 0 1-.445-1.202c1.436-1.106 2.884-2.034 4.822-2.985.498 1.491 1.214 3.484 1.71 4.549zm.767 4.529c.294-.765.521-1.332.605-1.89.569.957 1.248 1.999 1.774 2.814-.819.398-1.771 1.01-2.672 1.686.062-1.037.083-2.065.293-2.61zm5.334-14.637c-.01.015-.028.026-.039.04a23.057 23.057 0 0 0-1.377-2.111c1.007-.061 2.246-.008 3.374.108-1.014.363-1.46 1.254-1.958 1.963zm-9.028 1.094c.019-.026.039-.047.058-.072.233 1.182.512 2.16.885 3.518-1.402.618-3.881 2.148-4.976 2.972-.198-.502-.404-1.214-.589-1.946.249-.737.758-1.254 1.476-1.325 1.228-.123 2.28-1.95 3.146-3.147zm-5.41-1.784C4.24 6.455 6.023 4.666 7.65 3.773c-.016.4.086 1.567.218 2.693-.57.057-1.134.128-1.692.211a12.084 12.084 0 0 0-3.115 4.088c-.117-1.053-.178-1.933-.133-2.472zM2.07 9.731s.062 1.06.113 1.833c0 0-.781.886-1.18 1.591.159-1.444.498-2.188 1.067-3.424zm7.664 18.357c-4.046-1.269-7.044-4.678-8.113-8.254a17.475 17.475 0 0 1-.651-6.473c.056.01.186.072.38.017.135-.092.616-.43.958-.728.004.04.012.09.017.132-.23.869-.371 1.775-.4 2.71.37.39.804 1.037 1.286 1.706-.31.23-.905.642-1.045.741-.41.292-.406.753-.114 1.015.161.144.492.085.613-.01.358-.285.656-.513 1.066-.77.15.394.292.748.43 1.086-.175.188-.3.436-.342.799-.135 1.172.979 2.09 1.918 2.36.035.01.061.013.094.023.05.075.095.146.148.223-.487.378-.82.765-1.049 1.063-.132.172-.28.43-.16.481.123.05.535 0 .719-.034.466-.09.826-.606 1.148-.795.387.533 1.017 1.22 1.672 1.88.029.119.055.245.088.35.125.404.293.804.495 1.197.472.219.962.402 1.464.56a8.344 8.344 0 0 0-.622.72zm.99.312c.154-.202.31-.454.504-.626.468.31.969.665 1.368.894-.615-.07-1.337-.084-1.873-.268zm3.112.31s-1.604-1.062-2.009-1.47c.803-.668 2.102-1.46 3.128-1.89.402.631 1.727 2.507 2.258 3.112-.963.168-2.31.294-3.377.248zm6.706-1.508c-.287.188-1.665.813-2.205.987a23.43 23.43 0 0 1-2.44-3.201c.844-.354 2.143-.671 3.346-.821.11.343.25.704.444 1.094.191.382.412.662.649.853.085-.053.164-.115.248-.17-.006.42-.017.846-.042 1.258zM20.21 5.724c-.27-.172-.607-.108-.467.193.053.117.259.314.427.512-.986-.272-3.608-.478-4.856-.364-.815-.916-1.744-2.028-2.861-2.765 4.999-.311 9.49 1.757 11.474 4.186-.662-.344-2.088-.833-2.668-.963-.313-.319-.707-.58-1.05-.8zm1.095 21.066c.023-.408.04-.923.052-1.397.487-.378.946-.79 1.37-1.237.547.063 1.094.155 1.427.238-.74.938-1.762 1.718-2.85 2.396zm3.824-3.725c-.12.253-.428.688-.633.894-.312-.126-.781-.258-1.272-.374.079-.094.164-.183.24-.28.268-1.795-.338-2.37.42-4.014l.172-.37c.418.118.812.247 1.153.385.044.616.04 2.729-.08 3.759zm-.708-4.916c.196-.408.412-.84.646-1.271.06.548.104 1.081.13 1.563a9.254 9.254 0 0 0-.776-.292zm2.218 1.125l-.194.757c-.136.514-.593 1.731-.832 2.222.091-.663.172-2.384.149-2.73.16.05.501-.146.558-.34.057-.195-.564-.496-.564-.496a20.742 20.742 0 0 0-.172-2.7c.143-.23.287-.452.434-.655a12.082 12.082 0 0 0-.185-1.574c.124.04.24.073.323.074.282.005.282-.19.191-.298-.058-.07-.328-.238-.642-.42a12.02 12.02 0 0 0-2.781-5.32c.533.202 1.214.48 1.754.774.41.516 1.585 1.675 2.212 4.92.564 2.922-.059 5.143-.251 5.786z"/>
	</symbol>
	<symbol id="search" viewBox="0 0 24 24">
		<path d="M15.61 14.531l8.132 8.133-1.078 1.078-8.156-8.18-.188.188c-.844.672-1.773 1.164-2.789 1.476s-2.04.446-3.07.399a8.513 8.513 0 0 1-5.648-2.508c-.86-.859-1.5-1.824-1.922-2.894s-.633-2.16-.633-3.27.211-2.199.633-3.27 1.062-2.027 1.922-2.87c.843-.86 1.8-1.5 2.87-1.922s2.16-.633 3.27-.633 2.2.211 3.27.633 2.035 1.062 2.894 1.922a8.406 8.406 0 0 1 1.805 2.648 8.61 8.61 0 0 1 .293 6.094 8.626 8.626 0 0 1-1.512 2.812l-.14.141.046.023zm-6.704 1.594c.797 0 1.574-.13 2.332-.387a7.404 7.404 0 0 0 2.098-1.113l1.242-1.265a7.209 7.209 0 0 0 1.547-4.864 7.071 7.071 0 0 0-2.086-4.629c-.672-.687-1.445-1.21-2.32-1.57s-1.797-.539-2.766-.539-1.89.18-2.765.54-1.649.882-2.32 1.57c-.704.703-1.231 1.496-1.583 2.378s-.527 1.785-.527 2.707.176 1.825.527 2.707.88 1.676 1.582 2.38a7.049 7.049 0 0 0 2.309 1.546 7.06 7.06 0 0 0 2.73.539z"/>
	</symbol>
</svg>
